G04 EAGLE Gerber RS-274X export*
G75*
%MOMM*%
%FSLAX34Y34*%
%LPD*%
%INTop Copper*%
%IPPOS*%
%AMOC8*
5,1,8,0,0,1.08239X$1,22.5*%
G01*
%ADD10C,1.524000*%
%ADD11R,1.500000X1.300000*%
%ADD12R,1.300000X1.500000*%
%ADD13R,2.235000X1.219000*%
%ADD14R,2.200000X3.600000*%
%ADD15R,1.200000X1.200000*%
%ADD16R,2.000000X1.200000*%
%ADD17R,1.200000X2.000000*%
%ADD18C,0.508000*%
%ADD19C,1.016000*%
%ADD20C,1.206400*%

G36*
X128167Y10164D02*
X128167Y10164D01*
X128180Y10162D01*
X128251Y10183D01*
X128323Y10200D01*
X128333Y10208D01*
X128346Y10212D01*
X128400Y10263D01*
X128457Y10310D01*
X128462Y10322D01*
X128472Y10331D01*
X128498Y10401D01*
X128528Y10469D01*
X128527Y10482D01*
X128532Y10494D01*
X128524Y10567D01*
X128521Y10642D01*
X128515Y10653D01*
X128514Y10666D01*
X128474Y10729D01*
X128439Y10794D01*
X128428Y10801D01*
X128421Y10812D01*
X128300Y10892D01*
X124481Y12474D01*
X121194Y15761D01*
X119415Y20056D01*
X119415Y39944D01*
X121194Y44239D01*
X124481Y47526D01*
X128776Y49305D01*
X133424Y49305D01*
X137719Y47526D01*
X141006Y44239D01*
X142785Y39944D01*
X142785Y20056D01*
X141006Y15761D01*
X137719Y12474D01*
X133900Y10892D01*
X133889Y10885D01*
X133877Y10882D01*
X133819Y10835D01*
X133759Y10791D01*
X133753Y10780D01*
X133743Y10772D01*
X133713Y10704D01*
X133678Y10638D01*
X133677Y10625D01*
X133672Y10613D01*
X133675Y10539D01*
X133673Y10465D01*
X133678Y10453D01*
X133679Y10440D01*
X133714Y10375D01*
X133745Y10308D01*
X133755Y10299D01*
X133761Y10288D01*
X133822Y10245D01*
X133880Y10199D01*
X133892Y10196D01*
X133903Y10188D01*
X134045Y10161D01*
X153555Y10161D01*
X153567Y10164D01*
X153580Y10162D01*
X153651Y10183D01*
X153723Y10200D01*
X153733Y10208D01*
X153746Y10212D01*
X153800Y10263D01*
X153857Y10310D01*
X153862Y10322D01*
X153872Y10331D01*
X153898Y10401D01*
X153928Y10469D01*
X153927Y10482D01*
X153932Y10494D01*
X153924Y10567D01*
X153921Y10642D01*
X153915Y10653D01*
X153914Y10666D01*
X153874Y10729D01*
X153839Y10794D01*
X153828Y10801D01*
X153821Y10812D01*
X153700Y10892D01*
X149881Y12474D01*
X146594Y15761D01*
X144815Y20056D01*
X144815Y39944D01*
X146594Y44239D01*
X149881Y47526D01*
X154176Y49305D01*
X158824Y49305D01*
X163119Y47526D01*
X166406Y44239D01*
X168185Y39944D01*
X168185Y20056D01*
X166406Y15761D01*
X163119Y12474D01*
X159300Y10892D01*
X159289Y10885D01*
X159277Y10882D01*
X159219Y10835D01*
X159159Y10791D01*
X159153Y10780D01*
X159143Y10772D01*
X159113Y10704D01*
X159078Y10638D01*
X159077Y10625D01*
X159072Y10613D01*
X159075Y10539D01*
X159073Y10465D01*
X159078Y10453D01*
X159079Y10440D01*
X159114Y10375D01*
X159145Y10308D01*
X159155Y10299D01*
X159161Y10288D01*
X159222Y10245D01*
X159280Y10199D01*
X159292Y10196D01*
X159303Y10188D01*
X159445Y10161D01*
X178955Y10161D01*
X178967Y10164D01*
X178980Y10162D01*
X179051Y10183D01*
X179123Y10200D01*
X179133Y10208D01*
X179146Y10212D01*
X179200Y10263D01*
X179257Y10310D01*
X179262Y10322D01*
X179272Y10331D01*
X179298Y10401D01*
X179328Y10469D01*
X179327Y10482D01*
X179332Y10494D01*
X179324Y10567D01*
X179321Y10642D01*
X179315Y10653D01*
X179314Y10666D01*
X179274Y10729D01*
X179239Y10794D01*
X179228Y10801D01*
X179221Y10812D01*
X179100Y10892D01*
X175281Y12474D01*
X171994Y15761D01*
X170215Y20056D01*
X170215Y39944D01*
X171994Y44239D01*
X175281Y47526D01*
X179576Y49305D01*
X184224Y49305D01*
X188519Y47526D01*
X191806Y44239D01*
X193585Y39944D01*
X193585Y20056D01*
X191806Y15761D01*
X188519Y12474D01*
X184700Y10892D01*
X184689Y10885D01*
X184677Y10882D01*
X184619Y10835D01*
X184559Y10791D01*
X184553Y10780D01*
X184543Y10772D01*
X184513Y10704D01*
X184478Y10638D01*
X184477Y10625D01*
X184472Y10613D01*
X184475Y10539D01*
X184473Y10465D01*
X184478Y10453D01*
X184479Y10440D01*
X184514Y10375D01*
X184545Y10308D01*
X184555Y10299D01*
X184561Y10288D01*
X184622Y10245D01*
X184680Y10199D01*
X184692Y10196D01*
X184703Y10188D01*
X184845Y10161D01*
X204355Y10161D01*
X204367Y10164D01*
X204380Y10162D01*
X204451Y10183D01*
X204523Y10200D01*
X204533Y10208D01*
X204546Y10212D01*
X204600Y10263D01*
X204657Y10310D01*
X204662Y10322D01*
X204672Y10331D01*
X204698Y10401D01*
X204728Y10469D01*
X204727Y10482D01*
X204732Y10494D01*
X204724Y10567D01*
X204721Y10642D01*
X204715Y10653D01*
X204714Y10666D01*
X204674Y10729D01*
X204639Y10794D01*
X204628Y10801D01*
X204621Y10812D01*
X204500Y10892D01*
X200681Y12474D01*
X197394Y15761D01*
X195615Y20056D01*
X195615Y39944D01*
X197394Y44239D01*
X200681Y47526D01*
X204976Y49305D01*
X209624Y49305D01*
X213919Y47526D01*
X217206Y44239D01*
X218985Y39944D01*
X218985Y20056D01*
X217206Y15761D01*
X213919Y12474D01*
X210100Y10892D01*
X210089Y10885D01*
X210077Y10882D01*
X210019Y10835D01*
X209959Y10791D01*
X209953Y10780D01*
X209943Y10772D01*
X209913Y10704D01*
X209878Y10638D01*
X209877Y10625D01*
X209872Y10613D01*
X209875Y10539D01*
X209873Y10465D01*
X209878Y10453D01*
X209879Y10440D01*
X209914Y10375D01*
X209945Y10308D01*
X209955Y10299D01*
X209961Y10288D01*
X210022Y10245D01*
X210080Y10199D01*
X210092Y10196D01*
X210103Y10188D01*
X210245Y10161D01*
X229755Y10161D01*
X229767Y10164D01*
X229780Y10162D01*
X229851Y10183D01*
X229923Y10200D01*
X229933Y10208D01*
X229946Y10212D01*
X230000Y10263D01*
X230057Y10310D01*
X230062Y10322D01*
X230072Y10331D01*
X230098Y10401D01*
X230128Y10469D01*
X230127Y10482D01*
X230132Y10494D01*
X230124Y10567D01*
X230121Y10642D01*
X230115Y10653D01*
X230114Y10666D01*
X230074Y10729D01*
X230039Y10794D01*
X230028Y10801D01*
X230021Y10812D01*
X229900Y10892D01*
X226081Y12474D01*
X222794Y15761D01*
X221015Y20056D01*
X221015Y39944D01*
X222794Y44239D01*
X226081Y47526D01*
X230376Y49305D01*
X235024Y49305D01*
X239319Y47526D01*
X242606Y44239D01*
X244385Y39944D01*
X244385Y20056D01*
X242606Y15761D01*
X239319Y12474D01*
X235500Y10892D01*
X235489Y10885D01*
X235477Y10882D01*
X235419Y10835D01*
X235359Y10791D01*
X235353Y10780D01*
X235343Y10772D01*
X235313Y10704D01*
X235278Y10638D01*
X235277Y10625D01*
X235272Y10613D01*
X235275Y10539D01*
X235273Y10465D01*
X235278Y10453D01*
X235279Y10440D01*
X235314Y10375D01*
X235345Y10308D01*
X235355Y10299D01*
X235361Y10288D01*
X235422Y10245D01*
X235480Y10199D01*
X235492Y10196D01*
X235503Y10188D01*
X235645Y10161D01*
X280555Y10161D01*
X280567Y10164D01*
X280580Y10162D01*
X280651Y10183D01*
X280723Y10200D01*
X280733Y10208D01*
X280746Y10212D01*
X280800Y10263D01*
X280857Y10310D01*
X280862Y10322D01*
X280872Y10331D01*
X280898Y10401D01*
X280928Y10469D01*
X280927Y10482D01*
X280932Y10494D01*
X280924Y10567D01*
X280921Y10642D01*
X280915Y10653D01*
X280914Y10666D01*
X280874Y10729D01*
X280839Y10794D01*
X280828Y10801D01*
X280821Y10812D01*
X280700Y10892D01*
X276881Y12474D01*
X273594Y15761D01*
X271815Y20056D01*
X271815Y39944D01*
X273594Y44239D01*
X276881Y47526D01*
X281176Y49305D01*
X285824Y49305D01*
X290119Y47526D01*
X293406Y44239D01*
X295185Y39944D01*
X295185Y20056D01*
X293406Y15761D01*
X290119Y12474D01*
X286300Y10892D01*
X286289Y10885D01*
X286277Y10882D01*
X286219Y10835D01*
X286159Y10791D01*
X286153Y10780D01*
X286143Y10772D01*
X286113Y10704D01*
X286078Y10638D01*
X286077Y10625D01*
X286072Y10613D01*
X286075Y10539D01*
X286073Y10465D01*
X286078Y10453D01*
X286079Y10440D01*
X286114Y10375D01*
X286145Y10308D01*
X286155Y10299D01*
X286161Y10288D01*
X286222Y10245D01*
X286280Y10199D01*
X286292Y10196D01*
X286303Y10188D01*
X286445Y10161D01*
X305955Y10161D01*
X305967Y10164D01*
X305980Y10162D01*
X306051Y10183D01*
X306123Y10200D01*
X306133Y10208D01*
X306146Y10212D01*
X306200Y10263D01*
X306257Y10310D01*
X306262Y10322D01*
X306272Y10331D01*
X306298Y10401D01*
X306328Y10469D01*
X306327Y10482D01*
X306332Y10494D01*
X306324Y10567D01*
X306321Y10642D01*
X306315Y10653D01*
X306314Y10666D01*
X306274Y10729D01*
X306239Y10794D01*
X306228Y10801D01*
X306221Y10812D01*
X306100Y10892D01*
X302281Y12474D01*
X298994Y15761D01*
X297215Y20056D01*
X297215Y39944D01*
X298994Y44239D01*
X302281Y47526D01*
X306576Y49305D01*
X311224Y49305D01*
X315519Y47526D01*
X318806Y44239D01*
X320585Y39944D01*
X320585Y36985D01*
X320596Y36935D01*
X320598Y36884D01*
X320616Y36852D01*
X320624Y36816D01*
X320657Y36777D01*
X320681Y36732D01*
X320711Y36711D01*
X320734Y36683D01*
X320781Y36662D01*
X320823Y36632D01*
X320865Y36624D01*
X320893Y36612D01*
X320923Y36613D01*
X320965Y36605D01*
X357307Y36605D01*
X357381Y36622D01*
X357455Y36635D01*
X357466Y36642D01*
X357475Y36644D01*
X357504Y36668D01*
X357576Y36716D01*
X366664Y45804D01*
X366704Y45869D01*
X366748Y45931D01*
X366750Y45943D01*
X366755Y45952D01*
X366759Y45989D01*
X366775Y46073D01*
X366775Y96167D01*
X366758Y96241D01*
X366745Y96315D01*
X366738Y96326D01*
X366736Y96335D01*
X366712Y96364D01*
X366664Y96436D01*
X356878Y106222D01*
X356813Y106262D01*
X356751Y106306D01*
X356739Y106308D01*
X356730Y106313D01*
X356693Y106317D01*
X356609Y106333D01*
X355411Y106333D01*
X355349Y106319D01*
X355286Y106312D01*
X355266Y106299D01*
X355243Y106294D01*
X355193Y106253D01*
X355140Y106219D01*
X355125Y106197D01*
X355109Y106184D01*
X355093Y106149D01*
X355060Y106098D01*
X355014Y105987D01*
X351727Y102700D01*
X347432Y100921D01*
X327544Y100921D01*
X323249Y102700D01*
X319962Y105987D01*
X318183Y110282D01*
X318183Y114930D01*
X319962Y119225D01*
X323249Y122512D01*
X327544Y124291D01*
X330835Y124291D01*
X330885Y124302D01*
X330936Y124304D01*
X330968Y124322D01*
X331004Y124330D01*
X331043Y124363D01*
X331088Y124387D01*
X331109Y124417D01*
X331137Y124440D01*
X331158Y124487D01*
X331188Y124529D01*
X331196Y124571D01*
X331208Y124599D01*
X331207Y124629D01*
X331215Y124671D01*
X331215Y164747D01*
X331198Y164821D01*
X331185Y164895D01*
X331178Y164906D01*
X331176Y164915D01*
X331152Y164944D01*
X331104Y165016D01*
X327576Y168544D01*
X327511Y168584D01*
X327449Y168628D01*
X327437Y168630D01*
X327428Y168635D01*
X327391Y168639D01*
X327307Y168655D01*
X191726Y168655D01*
X189299Y169661D01*
X179821Y179139D01*
X178815Y181566D01*
X178815Y197767D01*
X178798Y197841D01*
X178785Y197915D01*
X178778Y197926D01*
X178776Y197935D01*
X178752Y197964D01*
X178704Y198036D01*
X162978Y213762D01*
X162946Y213782D01*
X162920Y213809D01*
X162873Y213827D01*
X162831Y213853D01*
X162793Y213857D01*
X162757Y213870D01*
X162708Y213865D01*
X162658Y213870D01*
X162623Y213856D01*
X162585Y213852D01*
X162543Y213826D01*
X162496Y213808D01*
X162470Y213780D01*
X162438Y213760D01*
X162412Y213717D01*
X162378Y213681D01*
X162368Y213645D01*
X162348Y213612D01*
X162343Y213563D01*
X162329Y213515D01*
X162336Y213477D01*
X162332Y213440D01*
X162353Y213381D01*
X162359Y213344D01*
X162372Y213325D01*
X162380Y213303D01*
X162413Y213246D01*
X162586Y212600D01*
X162586Y206931D01*
X149631Y206931D01*
X149631Y214806D01*
X160380Y214806D01*
X161026Y214633D01*
X161083Y214600D01*
X161119Y214589D01*
X161151Y214569D01*
X161201Y214564D01*
X161248Y214549D01*
X161286Y214556D01*
X161324Y214552D01*
X161370Y214570D01*
X161419Y214578D01*
X161450Y214600D01*
X161486Y214614D01*
X161519Y214650D01*
X161560Y214680D01*
X161578Y214713D01*
X161603Y214741D01*
X161617Y214789D01*
X161641Y214833D01*
X161642Y214871D01*
X161652Y214907D01*
X161644Y214956D01*
X161645Y215006D01*
X161629Y215040D01*
X161623Y215078D01*
X161588Y215129D01*
X161572Y215163D01*
X161555Y215179D01*
X161542Y215198D01*
X157731Y219009D01*
X157666Y219049D01*
X157604Y219093D01*
X157592Y219095D01*
X157583Y219100D01*
X157546Y219104D01*
X157462Y219120D01*
X136011Y219120D01*
X133630Y221501D01*
X133630Y237059D01*
X136011Y239440D01*
X161729Y239440D01*
X164110Y237059D01*
X164110Y231468D01*
X164124Y231409D01*
X164125Y231366D01*
X164135Y231347D01*
X164140Y231320D01*
X164147Y231309D01*
X164149Y231300D01*
X164173Y231271D01*
X164193Y231241D01*
X164208Y231213D01*
X164215Y231208D01*
X164221Y231199D01*
X191019Y204401D01*
X192025Y201974D01*
X192025Y185773D01*
X192042Y185699D01*
X192055Y185625D01*
X192062Y185614D01*
X192064Y185605D01*
X192088Y185576D01*
X192136Y185504D01*
X195664Y181976D01*
X195729Y181936D01*
X195791Y181892D01*
X195803Y181890D01*
X195812Y181885D01*
X195849Y181881D01*
X195933Y181865D01*
X331514Y181865D01*
X333941Y180859D01*
X343419Y171381D01*
X344425Y168954D01*
X344425Y124671D01*
X344436Y124621D01*
X344438Y124570D01*
X344456Y124538D01*
X344464Y124502D01*
X344497Y124463D01*
X344521Y124418D01*
X344551Y124397D01*
X344574Y124369D01*
X344621Y124348D01*
X344663Y124318D01*
X344705Y124310D01*
X344733Y124298D01*
X344763Y124299D01*
X344805Y124291D01*
X347432Y124291D01*
X351727Y122512D01*
X354585Y119654D01*
X354649Y119614D01*
X354711Y119570D01*
X354723Y119568D01*
X354732Y119563D01*
X354769Y119559D01*
X354853Y119543D01*
X360816Y119543D01*
X363243Y118537D01*
X378979Y102801D01*
X379985Y100374D01*
X379985Y41866D01*
X378979Y39439D01*
X363941Y24401D01*
X361514Y23395D01*
X320965Y23395D01*
X320915Y23384D01*
X320864Y23382D01*
X320832Y23364D01*
X320796Y23356D01*
X320757Y23323D01*
X320712Y23299D01*
X320691Y23269D01*
X320663Y23246D01*
X320642Y23199D01*
X320612Y23157D01*
X320604Y23115D01*
X320592Y23087D01*
X320593Y23057D01*
X320585Y23015D01*
X320585Y20056D01*
X318806Y15761D01*
X315519Y12474D01*
X311700Y10892D01*
X311689Y10885D01*
X311677Y10882D01*
X311619Y10835D01*
X311559Y10791D01*
X311553Y10780D01*
X311543Y10772D01*
X311513Y10704D01*
X311478Y10638D01*
X311477Y10625D01*
X311472Y10613D01*
X311475Y10539D01*
X311473Y10465D01*
X311478Y10453D01*
X311479Y10440D01*
X311514Y10375D01*
X311545Y10308D01*
X311555Y10299D01*
X311561Y10288D01*
X311622Y10245D01*
X311680Y10199D01*
X311692Y10196D01*
X311703Y10188D01*
X311845Y10161D01*
X439459Y10161D01*
X439509Y10172D01*
X439560Y10174D01*
X439592Y10192D01*
X439628Y10200D01*
X439667Y10233D01*
X439712Y10257D01*
X439733Y10287D01*
X439761Y10310D01*
X439782Y10357D01*
X439812Y10399D01*
X439820Y10441D01*
X439832Y10469D01*
X439831Y10499D01*
X439839Y10541D01*
X439839Y241621D01*
X439833Y241646D01*
X439836Y241672D01*
X439814Y241729D01*
X439800Y241790D01*
X439783Y241809D01*
X439774Y241834D01*
X439729Y241875D01*
X439690Y241923D01*
X439666Y241934D01*
X439647Y241951D01*
X439588Y241969D01*
X439531Y241994D01*
X439506Y241993D01*
X439481Y242000D01*
X439420Y241990D01*
X439358Y241987D01*
X439336Y241975D01*
X439310Y241971D01*
X439239Y241922D01*
X439206Y241905D01*
X439200Y241897D01*
X439190Y241890D01*
X434913Y237612D01*
X433001Y235701D01*
X430574Y234695D01*
X384766Y234695D01*
X382339Y235701D01*
X367814Y250226D01*
X367792Y250239D01*
X367776Y250259D01*
X367719Y250284D01*
X367667Y250317D01*
X367641Y250320D01*
X367617Y250330D01*
X367556Y250328D01*
X367494Y250334D01*
X367470Y250324D01*
X367444Y250323D01*
X367390Y250294D01*
X367332Y250272D01*
X367315Y250253D01*
X367292Y250241D01*
X367257Y250190D01*
X367215Y250145D01*
X367207Y250120D01*
X367192Y250099D01*
X367176Y250014D01*
X367165Y249979D01*
X367167Y249969D01*
X367165Y249957D01*
X367165Y249016D01*
X364784Y246635D01*
X346416Y246635D01*
X344035Y249016D01*
X344035Y265384D01*
X345083Y266431D01*
X345110Y266474D01*
X345144Y266512D01*
X345155Y266547D01*
X345174Y266578D01*
X345179Y266629D01*
X345193Y266678D01*
X345187Y266714D01*
X345191Y266751D01*
X345173Y266798D01*
X345164Y266849D01*
X345140Y266884D01*
X345129Y266913D01*
X345107Y266934D01*
X345083Y266969D01*
X344035Y268016D01*
X344035Y269215D01*
X344024Y269265D01*
X344022Y269316D01*
X344004Y269348D01*
X343996Y269384D01*
X343963Y269423D01*
X343939Y269468D01*
X343909Y269489D01*
X343886Y269517D01*
X343839Y269538D01*
X343797Y269568D01*
X343755Y269576D01*
X343727Y269588D01*
X343697Y269587D01*
X343655Y269595D01*
X337065Y269595D01*
X337015Y269584D01*
X336964Y269582D01*
X336932Y269564D01*
X336896Y269556D01*
X336857Y269523D01*
X336812Y269499D01*
X336791Y269469D01*
X336763Y269446D01*
X336742Y269399D01*
X336712Y269357D01*
X336704Y269315D01*
X336692Y269287D01*
X336693Y269257D01*
X336685Y269215D01*
X336685Y268016D01*
X334560Y265891D01*
X334533Y265848D01*
X334498Y265810D01*
X334488Y265775D01*
X334468Y265744D01*
X334463Y265693D01*
X334449Y265644D01*
X334455Y265608D01*
X334452Y265572D01*
X334470Y265524D01*
X334479Y265474D01*
X334502Y265438D01*
X334513Y265410D01*
X334536Y265389D01*
X334560Y265353D01*
X334653Y265260D01*
X334988Y264681D01*
X335152Y264067D01*
X335161Y264035D01*
X335161Y257961D01*
X325501Y257961D01*
X325451Y257950D01*
X325400Y257948D01*
X325368Y257930D01*
X325332Y257922D01*
X325293Y257889D01*
X325248Y257865D01*
X325227Y257835D01*
X325199Y257811D01*
X325178Y257765D01*
X325148Y257723D01*
X325140Y257681D01*
X325128Y257653D01*
X325129Y257623D01*
X325121Y257581D01*
X325121Y257199D01*
X325119Y257199D01*
X325119Y257581D01*
X325108Y257631D01*
X325106Y257682D01*
X325088Y257714D01*
X325080Y257750D01*
X325047Y257789D01*
X325023Y257834D01*
X324993Y257855D01*
X324969Y257883D01*
X324923Y257904D01*
X324881Y257934D01*
X324839Y257942D01*
X324811Y257954D01*
X324781Y257953D01*
X324739Y257961D01*
X315079Y257961D01*
X315079Y264035D01*
X315252Y264681D01*
X315587Y265260D01*
X315680Y265354D01*
X315707Y265397D01*
X315742Y265434D01*
X315752Y265470D01*
X315772Y265501D01*
X315777Y265551D01*
X315791Y265600D01*
X315785Y265637D01*
X315788Y265673D01*
X315770Y265721D01*
X315761Y265771D01*
X315738Y265806D01*
X315727Y265835D01*
X315704Y265856D01*
X315680Y265891D01*
X313555Y268016D01*
X313555Y269875D01*
X313544Y269925D01*
X313542Y269976D01*
X313524Y270008D01*
X313516Y270044D01*
X313483Y270083D01*
X313459Y270128D01*
X313429Y270149D01*
X313406Y270177D01*
X313359Y270198D01*
X313317Y270228D01*
X313275Y270236D01*
X313247Y270248D01*
X313217Y270247D01*
X313175Y270255D01*
X268105Y270255D01*
X268031Y270238D01*
X267957Y270225D01*
X267946Y270218D01*
X267937Y270216D01*
X267908Y270192D01*
X267837Y270144D01*
X266800Y269107D01*
X263439Y267715D01*
X259801Y267715D01*
X256440Y269107D01*
X253867Y271680D01*
X252475Y275041D01*
X252475Y278679D01*
X253867Y282040D01*
X256440Y284613D01*
X259801Y286005D01*
X263439Y286005D01*
X266800Y284613D01*
X267837Y283576D01*
X267901Y283536D01*
X267963Y283492D01*
X267975Y283490D01*
X267984Y283485D01*
X268021Y283481D01*
X268105Y283465D01*
X313175Y283465D01*
X313225Y283476D01*
X313276Y283478D01*
X313308Y283496D01*
X313344Y283504D01*
X313383Y283537D01*
X313428Y283561D01*
X313449Y283591D01*
X313477Y283614D01*
X313498Y283661D01*
X313528Y283703D01*
X313536Y283744D01*
X313548Y283773D01*
X313547Y283803D01*
X313555Y283845D01*
X313555Y284384D01*
X315936Y286765D01*
X334304Y286765D01*
X336685Y284384D01*
X336685Y283185D01*
X336696Y283135D01*
X336698Y283084D01*
X336716Y283052D01*
X336724Y283016D01*
X336757Y282977D01*
X336781Y282932D01*
X336811Y282911D01*
X336834Y282883D01*
X336881Y282862D01*
X336923Y282832D01*
X336965Y282824D01*
X336993Y282812D01*
X337023Y282813D01*
X337065Y282805D01*
X343655Y282805D01*
X343705Y282816D01*
X343756Y282818D01*
X343788Y282836D01*
X343824Y282844D01*
X343863Y282877D01*
X343908Y282901D01*
X343929Y282931D01*
X343957Y282954D01*
X343978Y283001D01*
X344008Y283043D01*
X344016Y283085D01*
X344028Y283113D01*
X344027Y283143D01*
X344035Y283185D01*
X344035Y284384D01*
X346416Y286765D01*
X364784Y286765D01*
X367165Y284384D01*
X367165Y268016D01*
X366117Y266969D01*
X366090Y266926D01*
X366056Y266888D01*
X366045Y266853D01*
X366026Y266822D01*
X366021Y266771D01*
X366007Y266722D01*
X366013Y266686D01*
X366009Y266649D01*
X366027Y266602D01*
X366036Y266551D01*
X366060Y266516D01*
X366071Y266487D01*
X366093Y266466D01*
X366117Y266431D01*
X367165Y265384D01*
X367165Y264185D01*
X367176Y264135D01*
X367178Y264084D01*
X367196Y264052D01*
X367204Y264016D01*
X367237Y263977D01*
X367261Y263932D01*
X367291Y263911D01*
X367314Y263883D01*
X367361Y263862D01*
X367403Y263832D01*
X367445Y263824D01*
X367473Y263812D01*
X367503Y263813D01*
X367545Y263805D01*
X371494Y263805D01*
X373921Y262799D01*
X388704Y248016D01*
X388769Y247976D01*
X388831Y247932D01*
X388843Y247930D01*
X388852Y247925D01*
X388889Y247921D01*
X388973Y247905D01*
X426367Y247905D01*
X426441Y247922D01*
X426515Y247935D01*
X426526Y247942D01*
X426535Y247944D01*
X426564Y247968D01*
X426636Y248016D01*
X427624Y249004D01*
X427664Y249069D01*
X427708Y249131D01*
X427710Y249143D01*
X427715Y249152D01*
X427719Y249189D01*
X427735Y249273D01*
X427735Y314607D01*
X427718Y314681D01*
X427705Y314755D01*
X427698Y314766D01*
X427696Y314775D01*
X427672Y314804D01*
X427624Y314876D01*
X425956Y316544D01*
X425891Y316584D01*
X425829Y316628D01*
X425817Y316630D01*
X425808Y316635D01*
X425771Y316639D01*
X425687Y316655D01*
X424097Y316655D01*
X424023Y316638D01*
X423949Y316625D01*
X423939Y316618D01*
X423929Y316616D01*
X423900Y316592D01*
X423829Y316544D01*
X420639Y313354D01*
X416344Y311575D01*
X396456Y311575D01*
X392161Y313354D01*
X388874Y316641D01*
X387095Y320936D01*
X387095Y325584D01*
X388874Y329879D01*
X392161Y333166D01*
X396456Y334945D01*
X416344Y334945D01*
X420639Y333166D01*
X423829Y329976D01*
X423893Y329936D01*
X423955Y329892D01*
X423967Y329890D01*
X423976Y329885D01*
X424013Y329881D01*
X424097Y329865D01*
X429894Y329865D01*
X432321Y328859D01*
X438028Y323153D01*
X439190Y321990D01*
X439212Y321977D01*
X439228Y321957D01*
X439285Y321932D01*
X439337Y321899D01*
X439363Y321896D01*
X439387Y321886D01*
X439448Y321888D01*
X439510Y321882D01*
X439534Y321892D01*
X439560Y321893D01*
X439614Y321922D01*
X439672Y321944D01*
X439689Y321963D01*
X439712Y321975D01*
X439747Y322026D01*
X439789Y322071D01*
X439797Y322096D01*
X439812Y322117D01*
X439828Y322202D01*
X439839Y322237D01*
X439837Y322247D01*
X439839Y322259D01*
X439839Y404181D01*
X439833Y404206D01*
X439836Y404232D01*
X439814Y404289D01*
X439800Y404350D01*
X439783Y404369D01*
X439774Y404394D01*
X439729Y404435D01*
X439690Y404483D01*
X439666Y404494D01*
X439647Y404511D01*
X439588Y404529D01*
X439531Y404554D01*
X439506Y404553D01*
X439481Y404560D01*
X439420Y404550D01*
X439358Y404547D01*
X439336Y404535D01*
X439310Y404531D01*
X439239Y404482D01*
X439206Y404465D01*
X439200Y404457D01*
X439190Y404450D01*
X427921Y393181D01*
X425494Y392175D01*
X380365Y392175D01*
X380315Y392164D01*
X380264Y392162D01*
X380232Y392144D01*
X380196Y392136D01*
X380157Y392103D01*
X380112Y392079D01*
X380091Y392049D01*
X380063Y392026D01*
X380042Y391979D01*
X380012Y391937D01*
X380004Y391895D01*
X379992Y391867D01*
X379993Y391837D01*
X379985Y391795D01*
X379985Y366113D01*
X380002Y366039D01*
X380015Y365964D01*
X380022Y365954D01*
X380024Y365945D01*
X380048Y365916D01*
X380096Y365844D01*
X389499Y356441D01*
X389542Y356415D01*
X389580Y356380D01*
X389615Y356369D01*
X389646Y356350D01*
X389697Y356345D01*
X389746Y356331D01*
X389782Y356337D01*
X389819Y356333D01*
X389866Y356352D01*
X389917Y356360D01*
X389952Y356384D01*
X389981Y356395D01*
X390001Y356418D01*
X390037Y356441D01*
X392161Y358566D01*
X396456Y360345D01*
X416344Y360345D01*
X420639Y358566D01*
X423926Y355279D01*
X425705Y350984D01*
X425705Y346336D01*
X423926Y342041D01*
X420639Y338754D01*
X416344Y336975D01*
X396456Y336975D01*
X392161Y338754D01*
X388971Y341944D01*
X388907Y341984D01*
X388845Y342028D01*
X388833Y342030D01*
X388824Y342035D01*
X388787Y342039D01*
X388703Y342055D01*
X386626Y342055D01*
X384199Y343061D01*
X369692Y357567D01*
X367781Y359479D01*
X366775Y361906D01*
X366775Y395887D01*
X366758Y395961D01*
X366745Y396035D01*
X366738Y396046D01*
X366736Y396055D01*
X366712Y396084D01*
X366664Y396156D01*
X364612Y398207D01*
X363136Y399684D01*
X363071Y399724D01*
X363009Y399768D01*
X362997Y399770D01*
X362988Y399775D01*
X362951Y399779D01*
X362867Y399795D01*
X362465Y399795D01*
X362415Y399784D01*
X362364Y399782D01*
X362332Y399764D01*
X362296Y399756D01*
X362257Y399723D01*
X362212Y399699D01*
X362191Y399669D01*
X362163Y399646D01*
X362142Y399599D01*
X362112Y399557D01*
X362104Y399515D01*
X362092Y399487D01*
X362093Y399457D01*
X362085Y399415D01*
X362085Y397556D01*
X361037Y396509D01*
X361010Y396466D01*
X360976Y396428D01*
X360965Y396393D01*
X360946Y396362D01*
X360941Y396311D01*
X360927Y396262D01*
X360933Y396226D01*
X360929Y396189D01*
X360947Y396142D01*
X360956Y396091D01*
X360980Y396056D01*
X360991Y396027D01*
X361013Y396006D01*
X361037Y395971D01*
X362085Y394924D01*
X362085Y378556D01*
X359704Y376175D01*
X357505Y376175D01*
X357455Y376164D01*
X357404Y376162D01*
X357372Y376144D01*
X357336Y376136D01*
X357297Y376103D01*
X357252Y376079D01*
X357231Y376049D01*
X357203Y376026D01*
X357182Y375979D01*
X357152Y375937D01*
X357144Y375895D01*
X357132Y375867D01*
X357133Y375837D01*
X357125Y375795D01*
X357125Y338173D01*
X357142Y338099D01*
X357155Y338025D01*
X357162Y338014D01*
X357164Y338005D01*
X357188Y337976D01*
X357236Y337904D01*
X389499Y305641D01*
X389542Y305615D01*
X389580Y305580D01*
X389615Y305569D01*
X389646Y305550D01*
X389697Y305545D01*
X389746Y305531D01*
X389782Y305537D01*
X389819Y305533D01*
X389866Y305552D01*
X389917Y305560D01*
X389952Y305584D01*
X389981Y305595D01*
X390001Y305618D01*
X390037Y305641D01*
X392161Y307766D01*
X396456Y309545D01*
X416344Y309545D01*
X420639Y307766D01*
X423926Y304479D01*
X425705Y300184D01*
X425705Y295536D01*
X423926Y291241D01*
X420639Y287954D01*
X416344Y286175D01*
X396456Y286175D01*
X392161Y287954D01*
X388971Y291144D01*
X388907Y291184D01*
X388845Y291228D01*
X388833Y291230D01*
X388824Y291235D01*
X388787Y291239D01*
X388703Y291255D01*
X386626Y291255D01*
X384199Y292261D01*
X344921Y331539D01*
X343915Y333966D01*
X343915Y375795D01*
X343904Y375845D01*
X343902Y375896D01*
X343884Y375928D01*
X343876Y375964D01*
X343843Y376003D01*
X343819Y376048D01*
X343789Y376069D01*
X343766Y376097D01*
X343719Y376118D01*
X343677Y376148D01*
X343635Y376156D01*
X343607Y376168D01*
X343577Y376167D01*
X343535Y376175D01*
X341336Y376175D01*
X338955Y378556D01*
X338955Y379755D01*
X338944Y379805D01*
X338942Y379856D01*
X338924Y379888D01*
X338916Y379924D01*
X338883Y379963D01*
X338859Y380008D01*
X338829Y380029D01*
X338806Y380057D01*
X338759Y380078D01*
X338717Y380108D01*
X338675Y380116D01*
X338647Y380128D01*
X338617Y380127D01*
X338575Y380135D01*
X314441Y380135D01*
X314367Y380118D01*
X314292Y380105D01*
X314282Y380098D01*
X314272Y380096D01*
X314244Y380072D01*
X314172Y380024D01*
X312817Y378669D01*
X312790Y378626D01*
X312756Y378588D01*
X312745Y378553D01*
X312726Y378522D01*
X312721Y378471D01*
X312707Y378422D01*
X312713Y378386D01*
X312709Y378349D01*
X312727Y378301D01*
X312736Y378251D01*
X312760Y378216D01*
X312771Y378187D01*
X312793Y378166D01*
X312817Y378131D01*
X314865Y376084D01*
X314865Y360716D01*
X312484Y358335D01*
X289116Y358335D01*
X286735Y360716D01*
X286735Y361315D01*
X286724Y361365D01*
X286722Y361416D01*
X286704Y361448D01*
X286696Y361484D01*
X286663Y361523D01*
X286639Y361568D01*
X286609Y361589D01*
X286586Y361617D01*
X286539Y361638D01*
X286497Y361668D01*
X286455Y361676D01*
X286427Y361688D01*
X286397Y361687D01*
X286355Y361695D01*
X245245Y361695D01*
X245171Y361678D01*
X245097Y361665D01*
X245086Y361658D01*
X245077Y361656D01*
X245048Y361632D01*
X244977Y361584D01*
X243940Y360547D01*
X240579Y359155D01*
X236941Y359155D01*
X233580Y360547D01*
X231007Y363120D01*
X229615Y366481D01*
X229615Y370119D01*
X231007Y373480D01*
X233580Y376053D01*
X236941Y377445D01*
X240579Y377445D01*
X243940Y376053D01*
X244977Y375016D01*
X245041Y374976D01*
X245103Y374932D01*
X245115Y374930D01*
X245124Y374925D01*
X245161Y374921D01*
X245245Y374905D01*
X286355Y374905D01*
X286405Y374916D01*
X286456Y374918D01*
X286488Y374936D01*
X286524Y374944D01*
X286563Y374977D01*
X286608Y375001D01*
X286629Y375031D01*
X286657Y375054D01*
X286678Y375101D01*
X286708Y375143D01*
X286716Y375185D01*
X286728Y375213D01*
X286727Y375243D01*
X286735Y375285D01*
X286735Y376084D01*
X288783Y378131D01*
X288810Y378174D01*
X288844Y378212D01*
X288855Y378247D01*
X288874Y378278D01*
X288879Y378329D01*
X288893Y378378D01*
X288887Y378414D01*
X288891Y378451D01*
X288873Y378498D01*
X288864Y378549D01*
X288840Y378584D01*
X288829Y378613D01*
X288807Y378634D01*
X288783Y378669D01*
X286735Y380716D01*
X286735Y396084D01*
X288783Y398131D01*
X288795Y398152D01*
X288812Y398165D01*
X288823Y398188D01*
X288844Y398212D01*
X288855Y398247D01*
X288874Y398278D01*
X288877Y398310D01*
X288883Y398324D01*
X288882Y398341D01*
X288893Y398378D01*
X288887Y398414D01*
X288891Y398451D01*
X288877Y398487D01*
X288877Y398497D01*
X288871Y398507D01*
X288864Y398549D01*
X288840Y398584D01*
X288829Y398613D01*
X288807Y398634D01*
X288783Y398669D01*
X286735Y400716D01*
X286735Y401415D01*
X286724Y401465D01*
X286722Y401516D01*
X286704Y401548D01*
X286696Y401584D01*
X286663Y401623D01*
X286639Y401668D01*
X286609Y401689D01*
X286586Y401717D01*
X286539Y401738D01*
X286497Y401768D01*
X286455Y401776D01*
X286427Y401788D01*
X286397Y401787D01*
X286355Y401795D01*
X277725Y401795D01*
X277651Y401778D01*
X277577Y401765D01*
X277566Y401758D01*
X277557Y401756D01*
X277528Y401732D01*
X277456Y401684D01*
X276960Y401187D01*
X273599Y399795D01*
X269961Y399795D01*
X266600Y401187D01*
X264027Y403760D01*
X262635Y407121D01*
X262635Y410759D01*
X264027Y414120D01*
X266600Y416693D01*
X269961Y418085D01*
X273599Y418085D01*
X276960Y416693D01*
X278536Y415116D01*
X278601Y415076D01*
X278663Y415032D01*
X278675Y415030D01*
X278684Y415025D01*
X278721Y415021D01*
X278805Y415005D01*
X286355Y415005D01*
X286405Y415016D01*
X286456Y415018D01*
X286488Y415036D01*
X286524Y415044D01*
X286563Y415077D01*
X286608Y415101D01*
X286629Y415131D01*
X286657Y415154D01*
X286678Y415201D01*
X286708Y415243D01*
X286716Y415285D01*
X286728Y415313D01*
X286727Y415343D01*
X286735Y415385D01*
X286735Y416084D01*
X288783Y418131D01*
X288810Y418174D01*
X288844Y418212D01*
X288855Y418247D01*
X288874Y418278D01*
X288879Y418329D01*
X288893Y418378D01*
X288887Y418414D01*
X288891Y418451D01*
X288873Y418498D01*
X288864Y418549D01*
X288840Y418584D01*
X288829Y418613D01*
X288807Y418634D01*
X288783Y418669D01*
X286735Y420716D01*
X286735Y436084D01*
X288783Y438131D01*
X288810Y438174D01*
X288844Y438212D01*
X288855Y438247D01*
X288874Y438278D01*
X288879Y438329D01*
X288893Y438378D01*
X288887Y438414D01*
X288891Y438451D01*
X288873Y438498D01*
X288864Y438549D01*
X288840Y438584D01*
X288829Y438613D01*
X288807Y438634D01*
X288783Y438669D01*
X286735Y440716D01*
X286735Y456084D01*
X288783Y458131D01*
X288810Y458174D01*
X288844Y458212D01*
X288855Y458247D01*
X288874Y458278D01*
X288879Y458329D01*
X288893Y458378D01*
X288887Y458414D01*
X288891Y458451D01*
X288873Y458498D01*
X288864Y458549D01*
X288840Y458584D01*
X288829Y458613D01*
X288807Y458634D01*
X288783Y458669D01*
X286735Y460716D01*
X286735Y476084D01*
X288783Y478131D01*
X288810Y478174D01*
X288844Y478212D01*
X288855Y478247D01*
X288874Y478278D01*
X288879Y478329D01*
X288893Y478378D01*
X288887Y478414D01*
X288891Y478451D01*
X288873Y478498D01*
X288864Y478549D01*
X288840Y478584D01*
X288829Y478613D01*
X288807Y478634D01*
X288783Y478669D01*
X286735Y480716D01*
X286735Y495405D01*
X286724Y495455D01*
X286722Y495506D01*
X286704Y495538D01*
X286696Y495574D01*
X286663Y495613D01*
X286639Y495658D01*
X286609Y495679D01*
X286586Y495707D01*
X286539Y495728D01*
X286497Y495758D01*
X286455Y495766D01*
X286427Y495778D01*
X286397Y495777D01*
X286355Y495785D01*
X153245Y495785D01*
X153195Y495774D01*
X153144Y495772D01*
X153112Y495754D01*
X153076Y495746D01*
X153037Y495713D01*
X152992Y495689D01*
X152971Y495659D01*
X152943Y495636D01*
X152922Y495589D01*
X152892Y495547D01*
X152884Y495505D01*
X152872Y495477D01*
X152873Y495447D01*
X152865Y495405D01*
X152865Y480716D01*
X150817Y478669D01*
X150790Y478626D01*
X150756Y478588D01*
X150745Y478553D01*
X150726Y478522D01*
X150721Y478471D01*
X150707Y478422D01*
X150713Y478386D01*
X150709Y478349D01*
X150727Y478301D01*
X150736Y478251D01*
X150760Y478216D01*
X150771Y478187D01*
X150793Y478166D01*
X150817Y478131D01*
X152865Y476084D01*
X152865Y475385D01*
X152876Y475335D01*
X152878Y475284D01*
X152896Y475252D01*
X152904Y475216D01*
X152937Y475177D01*
X152961Y475132D01*
X152991Y475111D01*
X153014Y475083D01*
X153061Y475062D01*
X153103Y475032D01*
X153145Y475024D01*
X153173Y475012D01*
X153203Y475013D01*
X153245Y475005D01*
X208554Y475005D01*
X210981Y473999D01*
X224039Y460941D01*
X225045Y458514D01*
X225045Y392565D01*
X225062Y392491D01*
X225075Y392417D01*
X225082Y392406D01*
X225084Y392397D01*
X225108Y392368D01*
X225156Y392297D01*
X226193Y391260D01*
X227585Y387899D01*
X227585Y384261D01*
X226193Y380900D01*
X223620Y378327D01*
X220259Y376935D01*
X216621Y376935D01*
X213260Y378327D01*
X210687Y380900D01*
X209295Y384261D01*
X209295Y387899D01*
X210687Y391260D01*
X211724Y392297D01*
X211764Y392361D01*
X211808Y392423D01*
X211810Y392435D01*
X211815Y392444D01*
X211819Y392481D01*
X211835Y392565D01*
X211835Y454307D01*
X211823Y454359D01*
X211822Y454393D01*
X211813Y454410D01*
X211805Y454455D01*
X211798Y454466D01*
X211796Y454475D01*
X211772Y454504D01*
X211724Y454576D01*
X204616Y461684D01*
X204551Y461724D01*
X204489Y461768D01*
X204477Y461770D01*
X204468Y461775D01*
X204431Y461779D01*
X204347Y461795D01*
X153245Y461795D01*
X153195Y461784D01*
X153144Y461782D01*
X153112Y461764D01*
X153076Y461756D01*
X153037Y461723D01*
X152992Y461699D01*
X152971Y461669D01*
X152943Y461646D01*
X152922Y461599D01*
X152892Y461557D01*
X152884Y461515D01*
X152872Y461487D01*
X152873Y461457D01*
X152865Y461415D01*
X152865Y460716D01*
X150817Y458669D01*
X150790Y458626D01*
X150756Y458588D01*
X150745Y458553D01*
X150726Y458522D01*
X150721Y458471D01*
X150707Y458422D01*
X150713Y458386D01*
X150709Y458349D01*
X150727Y458301D01*
X150736Y458251D01*
X150760Y458216D01*
X150771Y458187D01*
X150793Y458166D01*
X150817Y458131D01*
X152865Y456084D01*
X152865Y440716D01*
X150817Y438669D01*
X150790Y438626D01*
X150756Y438588D01*
X150745Y438553D01*
X150726Y438522D01*
X150721Y438471D01*
X150707Y438422D01*
X150713Y438386D01*
X150709Y438349D01*
X150727Y438301D01*
X150736Y438251D01*
X150760Y438216D01*
X150771Y438187D01*
X150793Y438166D01*
X150817Y438131D01*
X152865Y436084D01*
X152865Y420716D01*
X150817Y418669D01*
X150790Y418626D01*
X150756Y418588D01*
X150745Y418553D01*
X150726Y418522D01*
X150721Y418471D01*
X150707Y418422D01*
X150713Y418386D01*
X150709Y418349D01*
X150727Y418301D01*
X150736Y418251D01*
X150760Y418216D01*
X150771Y418187D01*
X150793Y418166D01*
X150817Y418131D01*
X152865Y416084D01*
X152865Y413385D01*
X152876Y413335D01*
X152878Y413284D01*
X152896Y413252D01*
X152904Y413216D01*
X152937Y413177D01*
X152961Y413132D01*
X152991Y413111D01*
X153014Y413083D01*
X153061Y413062D01*
X153103Y413032D01*
X153145Y413024D01*
X153173Y413012D01*
X153203Y413013D01*
X153245Y413005D01*
X173855Y413005D01*
X173929Y413022D01*
X174003Y413035D01*
X174014Y413042D01*
X174023Y413044D01*
X174052Y413068D01*
X174123Y413116D01*
X175160Y414153D01*
X178521Y415545D01*
X182159Y415545D01*
X185520Y414153D01*
X188093Y411580D01*
X189485Y408219D01*
X189485Y404581D01*
X188093Y401220D01*
X185520Y398647D01*
X182159Y397255D01*
X178521Y397255D01*
X175160Y398647D01*
X174123Y399684D01*
X174059Y399724D01*
X173997Y399768D01*
X173985Y399770D01*
X173976Y399775D01*
X173939Y399779D01*
X173855Y399795D01*
X152101Y399795D01*
X152027Y399778D01*
X151952Y399765D01*
X151942Y399758D01*
X151932Y399756D01*
X151904Y399732D01*
X151832Y399684D01*
X150817Y398669D01*
X150794Y398632D01*
X150788Y398627D01*
X150784Y398619D01*
X150756Y398588D01*
X150745Y398553D01*
X150726Y398522D01*
X150722Y398479D01*
X150717Y398468D01*
X150717Y398458D01*
X150707Y398422D01*
X150713Y398386D01*
X150709Y398349D01*
X150723Y398314D01*
X150723Y398295D01*
X150731Y398282D01*
X150736Y398251D01*
X150760Y398216D01*
X150771Y398187D01*
X150793Y398166D01*
X150794Y398166D01*
X150806Y398143D01*
X150812Y398139D01*
X150817Y398131D01*
X152865Y396084D01*
X152865Y393065D01*
X152876Y393015D01*
X152878Y392964D01*
X152896Y392932D01*
X152904Y392896D01*
X152937Y392857D01*
X152961Y392812D01*
X152991Y392791D01*
X153014Y392763D01*
X153061Y392742D01*
X153103Y392712D01*
X153145Y392704D01*
X153173Y392692D01*
X153203Y392693D01*
X153245Y392685D01*
X191635Y392685D01*
X191709Y392702D01*
X191783Y392715D01*
X191794Y392722D01*
X191803Y392724D01*
X191832Y392748D01*
X191903Y392796D01*
X192940Y393833D01*
X196301Y395225D01*
X199939Y395225D01*
X203300Y393833D01*
X205873Y391260D01*
X207265Y387899D01*
X207265Y384261D01*
X205873Y380900D01*
X203300Y378327D01*
X199939Y376935D01*
X196301Y376935D01*
X192940Y378327D01*
X191903Y379364D01*
X191839Y379404D01*
X191777Y379448D01*
X191765Y379450D01*
X191756Y379455D01*
X191719Y379459D01*
X191635Y379475D01*
X151781Y379475D01*
X151707Y379458D01*
X151632Y379445D01*
X151622Y379438D01*
X151612Y379436D01*
X151584Y379412D01*
X151512Y379364D01*
X150817Y378669D01*
X150790Y378626D01*
X150756Y378588D01*
X150745Y378553D01*
X150726Y378522D01*
X150721Y378471D01*
X150707Y378422D01*
X150713Y378386D01*
X150709Y378349D01*
X150727Y378301D01*
X150736Y378251D01*
X150760Y378216D01*
X150771Y378187D01*
X150793Y378166D01*
X150817Y378131D01*
X152865Y376084D01*
X152865Y375285D01*
X152876Y375235D01*
X152878Y375184D01*
X152896Y375152D01*
X152904Y375116D01*
X152937Y375077D01*
X152961Y375032D01*
X152991Y375011D01*
X153014Y374983D01*
X153061Y374962D01*
X153103Y374932D01*
X153145Y374924D01*
X153173Y374912D01*
X153203Y374913D01*
X153245Y374905D01*
X168775Y374905D01*
X168849Y374922D01*
X168923Y374935D01*
X168934Y374942D01*
X168943Y374944D01*
X168972Y374968D01*
X169043Y375016D01*
X170080Y376053D01*
X173441Y377445D01*
X177079Y377445D01*
X180440Y376053D01*
X183013Y373480D01*
X184405Y370119D01*
X184405Y366481D01*
X183013Y363120D01*
X180440Y360547D01*
X177079Y359155D01*
X173441Y359155D01*
X170080Y360547D01*
X169043Y361584D01*
X168979Y361624D01*
X168917Y361668D01*
X168905Y361670D01*
X168896Y361675D01*
X168859Y361679D01*
X168775Y361695D01*
X153245Y361695D01*
X153195Y361684D01*
X153144Y361682D01*
X153112Y361664D01*
X153076Y361656D01*
X153037Y361623D01*
X152992Y361599D01*
X152971Y361569D01*
X152943Y361546D01*
X152922Y361499D01*
X152892Y361457D01*
X152884Y361415D01*
X152872Y361387D01*
X152873Y361357D01*
X152865Y361315D01*
X152865Y360716D01*
X150817Y358669D01*
X150790Y358626D01*
X150756Y358588D01*
X150745Y358553D01*
X150726Y358522D01*
X150721Y358471D01*
X150707Y358422D01*
X150713Y358386D01*
X150709Y358349D01*
X150727Y358302D01*
X150736Y358251D01*
X150760Y358216D01*
X150771Y358187D01*
X150793Y358166D01*
X150817Y358131D01*
X152865Y356084D01*
X152865Y340716D01*
X150484Y338335D01*
X127116Y338335D01*
X124735Y340716D01*
X124735Y340995D01*
X124724Y341045D01*
X124722Y341096D01*
X124704Y341128D01*
X124696Y341164D01*
X124663Y341203D01*
X124639Y341248D01*
X124609Y341269D01*
X124586Y341297D01*
X124539Y341318D01*
X124497Y341348D01*
X124455Y341356D01*
X124427Y341368D01*
X124397Y341367D01*
X124355Y341375D01*
X123825Y341375D01*
X123775Y341364D01*
X123724Y341362D01*
X123692Y341344D01*
X123656Y341336D01*
X123617Y341303D01*
X123572Y341279D01*
X123551Y341249D01*
X123523Y341226D01*
X123502Y341179D01*
X123472Y341137D01*
X123464Y341095D01*
X123452Y341067D01*
X123452Y341052D01*
X123452Y341051D01*
X123452Y341034D01*
X123445Y340995D01*
X123445Y311785D01*
X123456Y311735D01*
X123458Y311684D01*
X123476Y311652D01*
X123484Y311616D01*
X123517Y311577D01*
X123541Y311532D01*
X123571Y311511D01*
X123594Y311483D01*
X123641Y311462D01*
X123683Y311432D01*
X123725Y311424D01*
X123753Y311412D01*
X123783Y311413D01*
X123825Y311405D01*
X268014Y311405D01*
X270441Y310399D01*
X274490Y306351D01*
X274544Y306317D01*
X274593Y306277D01*
X274617Y306272D01*
X274637Y306259D01*
X274700Y306253D01*
X274762Y306239D01*
X274789Y306245D01*
X274810Y306243D01*
X274845Y306256D01*
X274904Y306268D01*
X275041Y306325D01*
X278679Y306325D01*
X282040Y304933D01*
X284613Y302360D01*
X286005Y298999D01*
X286005Y295361D01*
X284613Y292000D01*
X282040Y289427D01*
X278679Y288035D01*
X275041Y288035D01*
X271680Y289427D01*
X269107Y292000D01*
X268392Y293726D01*
X268391Y293728D01*
X268391Y293729D01*
X268310Y293849D01*
X264076Y298084D01*
X264011Y298124D01*
X263949Y298168D01*
X263937Y298170D01*
X263928Y298175D01*
X263891Y298179D01*
X263807Y298195D01*
X98305Y298195D01*
X98255Y298184D01*
X98204Y298182D01*
X98172Y298164D01*
X98136Y298156D01*
X98097Y298123D01*
X98052Y298099D01*
X98031Y298069D01*
X98003Y298046D01*
X97982Y297999D01*
X97952Y297957D01*
X97944Y297915D01*
X97932Y297887D01*
X97933Y297857D01*
X97925Y297815D01*
X97925Y297276D01*
X95544Y294895D01*
X93875Y294895D01*
X93825Y294884D01*
X93774Y294882D01*
X93742Y294864D01*
X93706Y294856D01*
X93667Y294823D01*
X93622Y294799D01*
X93601Y294769D01*
X93573Y294746D01*
X93552Y294699D01*
X93522Y294657D01*
X93514Y294615D01*
X93502Y294587D01*
X93503Y294557D01*
X93495Y294515D01*
X93495Y251725D01*
X93506Y251675D01*
X93508Y251624D01*
X93526Y251592D01*
X93534Y251556D01*
X93567Y251517D01*
X93591Y251472D01*
X93621Y251451D01*
X93644Y251423D01*
X93691Y251402D01*
X93733Y251372D01*
X93775Y251364D01*
X93803Y251352D01*
X93833Y251353D01*
X93875Y251345D01*
X99574Y251345D01*
X101955Y248964D01*
X101955Y209596D01*
X99574Y207215D01*
X74206Y207215D01*
X71825Y209596D01*
X71825Y248964D01*
X74206Y251345D01*
X79905Y251345D01*
X79955Y251356D01*
X80006Y251358D01*
X80038Y251376D01*
X80074Y251384D01*
X80113Y251417D01*
X80158Y251441D01*
X80179Y251471D01*
X80207Y251494D01*
X80228Y251541D01*
X80258Y251583D01*
X80266Y251625D01*
X80278Y251653D01*
X80277Y251683D01*
X80285Y251725D01*
X80285Y294515D01*
X80274Y294565D01*
X80272Y294616D01*
X80254Y294648D01*
X80246Y294684D01*
X80213Y294723D01*
X80189Y294768D01*
X80159Y294789D01*
X80136Y294817D01*
X80089Y294838D01*
X80047Y294868D01*
X80005Y294876D01*
X79977Y294888D01*
X79947Y294887D01*
X79905Y294895D01*
X77176Y294895D01*
X74795Y297276D01*
X74795Y298475D01*
X74784Y298525D01*
X74782Y298576D01*
X74764Y298608D01*
X74756Y298644D01*
X74723Y298683D01*
X74699Y298728D01*
X74669Y298749D01*
X74646Y298777D01*
X74599Y298798D01*
X74557Y298828D01*
X74515Y298836D01*
X74487Y298848D01*
X74457Y298847D01*
X74415Y298855D01*
X67825Y298855D01*
X67775Y298844D01*
X67724Y298842D01*
X67692Y298824D01*
X67656Y298816D01*
X67617Y298783D01*
X67572Y298759D01*
X67551Y298729D01*
X67523Y298706D01*
X67502Y298659D01*
X67472Y298617D01*
X67464Y298575D01*
X67452Y298547D01*
X67453Y298517D01*
X67445Y298475D01*
X67445Y297276D01*
X65064Y294895D01*
X46696Y294895D01*
X44315Y297276D01*
X44315Y313644D01*
X46440Y315769D01*
X46467Y315812D01*
X46502Y315850D01*
X46512Y315885D01*
X46532Y315916D01*
X46537Y315967D01*
X46551Y316016D01*
X46545Y316052D01*
X46548Y316088D01*
X46530Y316136D01*
X46521Y316186D01*
X46498Y316222D01*
X46487Y316250D01*
X46464Y316271D01*
X46440Y316306D01*
X46347Y316400D01*
X46012Y316979D01*
X45839Y317625D01*
X45839Y323699D01*
X55499Y323699D01*
X55549Y323710D01*
X55600Y323712D01*
X55632Y323730D01*
X55668Y323738D01*
X55707Y323771D01*
X55752Y323795D01*
X55773Y323825D01*
X55801Y323848D01*
X55822Y323895D01*
X55852Y323937D01*
X55860Y323979D01*
X55872Y324007D01*
X55871Y324037D01*
X55879Y324079D01*
X55879Y324461D01*
X55881Y324461D01*
X55881Y324079D01*
X55892Y324029D01*
X55894Y323978D01*
X55912Y323946D01*
X55920Y323910D01*
X55953Y323871D01*
X55977Y323826D01*
X56007Y323805D01*
X56031Y323777D01*
X56077Y323756D01*
X56119Y323726D01*
X56161Y323718D01*
X56189Y323706D01*
X56219Y323707D01*
X56261Y323699D01*
X65921Y323699D01*
X65921Y317625D01*
X65748Y316979D01*
X65413Y316400D01*
X65320Y316306D01*
X65293Y316263D01*
X65258Y316226D01*
X65248Y316190D01*
X65228Y316159D01*
X65223Y316109D01*
X65209Y316060D01*
X65215Y316023D01*
X65212Y315987D01*
X65230Y315939D01*
X65239Y315889D01*
X65262Y315854D01*
X65273Y315825D01*
X65296Y315804D01*
X65320Y315769D01*
X67445Y313644D01*
X67445Y312445D01*
X67456Y312395D01*
X67458Y312344D01*
X67476Y312312D01*
X67484Y312276D01*
X67517Y312237D01*
X67541Y312192D01*
X67571Y312171D01*
X67594Y312143D01*
X67641Y312122D01*
X67683Y312092D01*
X67725Y312084D01*
X67753Y312072D01*
X67783Y312073D01*
X67825Y312065D01*
X74415Y312065D01*
X74465Y312076D01*
X74516Y312078D01*
X74548Y312096D01*
X74584Y312104D01*
X74623Y312137D01*
X74668Y312161D01*
X74689Y312191D01*
X74717Y312214D01*
X74738Y312261D01*
X74768Y312303D01*
X74776Y312345D01*
X74788Y312373D01*
X74788Y312386D01*
X74788Y312387D01*
X74788Y312405D01*
X74795Y312445D01*
X74795Y313644D01*
X76920Y315769D01*
X76947Y315812D01*
X76982Y315850D01*
X76992Y315885D01*
X77012Y315916D01*
X77017Y315967D01*
X77031Y316016D01*
X77025Y316052D01*
X77028Y316088D01*
X77010Y316136D01*
X77001Y316186D01*
X76978Y316222D01*
X76967Y316250D01*
X76944Y316271D01*
X76920Y316306D01*
X76827Y316400D01*
X76492Y316979D01*
X76319Y317625D01*
X76319Y323699D01*
X85979Y323699D01*
X86029Y323710D01*
X86080Y323712D01*
X86112Y323730D01*
X86148Y323738D01*
X86187Y323771D01*
X86232Y323795D01*
X86253Y323825D01*
X86281Y323848D01*
X86302Y323895D01*
X86332Y323937D01*
X86340Y323979D01*
X86352Y324007D01*
X86351Y324037D01*
X86359Y324079D01*
X86359Y324461D01*
X86361Y324461D01*
X86361Y324079D01*
X86372Y324029D01*
X86374Y323978D01*
X86392Y323946D01*
X86400Y323910D01*
X86433Y323871D01*
X86457Y323826D01*
X86487Y323805D01*
X86511Y323777D01*
X86557Y323756D01*
X86599Y323726D01*
X86641Y323718D01*
X86669Y323706D01*
X86699Y323707D01*
X86741Y323699D01*
X96401Y323699D01*
X96401Y317625D01*
X96228Y316979D01*
X95893Y316400D01*
X95800Y316306D01*
X95773Y316263D01*
X95738Y316226D01*
X95728Y316190D01*
X95708Y316159D01*
X95703Y316109D01*
X95689Y316060D01*
X95695Y316023D01*
X95692Y315987D01*
X95710Y315939D01*
X95719Y315889D01*
X95742Y315854D01*
X95753Y315825D01*
X95776Y315804D01*
X95800Y315769D01*
X97925Y313644D01*
X97925Y311785D01*
X97936Y311735D01*
X97938Y311684D01*
X97956Y311652D01*
X97964Y311616D01*
X97997Y311577D01*
X98021Y311532D01*
X98051Y311511D01*
X98074Y311483D01*
X98121Y311462D01*
X98163Y311432D01*
X98205Y311424D01*
X98233Y311412D01*
X98263Y311413D01*
X98305Y311405D01*
X109855Y311405D01*
X109905Y311416D01*
X109956Y311418D01*
X109988Y311436D01*
X110024Y311444D01*
X110063Y311477D01*
X110108Y311501D01*
X110129Y311531D01*
X110157Y311554D01*
X110178Y311601D01*
X110208Y311643D01*
X110216Y311685D01*
X110228Y311713D01*
X110227Y311743D01*
X110235Y311785D01*
X110235Y340995D01*
X110224Y341045D01*
X110222Y341096D01*
X110204Y341128D01*
X110196Y341164D01*
X110163Y341203D01*
X110139Y341248D01*
X110109Y341269D01*
X110086Y341297D01*
X110039Y341318D01*
X109997Y341348D01*
X109955Y341356D01*
X109927Y341368D01*
X109897Y341367D01*
X109855Y341375D01*
X49486Y341375D01*
X47059Y342381D01*
X35041Y354399D01*
X34035Y356826D01*
X34035Y450894D01*
X35041Y453321D01*
X36952Y455233D01*
X42607Y460888D01*
X44519Y462799D01*
X46946Y463805D01*
X48895Y463805D01*
X48945Y463816D01*
X48996Y463818D01*
X49028Y463836D01*
X49064Y463844D01*
X49103Y463877D01*
X49148Y463901D01*
X49169Y463931D01*
X49197Y463954D01*
X49218Y464001D01*
X49248Y464043D01*
X49256Y464085D01*
X49268Y464113D01*
X49267Y464143D01*
X49275Y464185D01*
X49275Y474855D01*
X49264Y474905D01*
X49262Y474956D01*
X49244Y474988D01*
X49236Y475024D01*
X49203Y475063D01*
X49179Y475108D01*
X49149Y475129D01*
X49126Y475157D01*
X49079Y475178D01*
X49037Y475208D01*
X48995Y475216D01*
X48967Y475228D01*
X48937Y475227D01*
X48895Y475235D01*
X46696Y475235D01*
X44315Y477616D01*
X44315Y493984D01*
X45363Y495031D01*
X45390Y495074D01*
X45424Y495112D01*
X45435Y495147D01*
X45454Y495178D01*
X45459Y495229D01*
X45473Y495278D01*
X45467Y495314D01*
X45471Y495351D01*
X45453Y495398D01*
X45444Y495449D01*
X45420Y495484D01*
X45409Y495513D01*
X45387Y495534D01*
X45363Y495569D01*
X44315Y496616D01*
X44315Y497815D01*
X44304Y497865D01*
X44302Y497916D01*
X44284Y497948D01*
X44276Y497984D01*
X44243Y498023D01*
X44219Y498068D01*
X44189Y498089D01*
X44166Y498117D01*
X44119Y498138D01*
X44077Y498168D01*
X44035Y498176D01*
X44007Y498188D01*
X43977Y498187D01*
X43935Y498195D01*
X37345Y498195D01*
X37295Y498184D01*
X37244Y498182D01*
X37212Y498164D01*
X37176Y498156D01*
X37137Y498123D01*
X37092Y498099D01*
X37071Y498069D01*
X37043Y498046D01*
X37022Y497999D01*
X36992Y497957D01*
X36984Y497915D01*
X36972Y497887D01*
X36973Y497857D01*
X36965Y497815D01*
X36965Y495396D01*
X34584Y493015D01*
X32385Y493015D01*
X32335Y493004D01*
X32284Y493002D01*
X32252Y492984D01*
X32216Y492976D01*
X32177Y492943D01*
X32132Y492919D01*
X32111Y492889D01*
X32083Y492866D01*
X32062Y492819D01*
X32032Y492777D01*
X32024Y492735D01*
X32012Y492707D01*
X32013Y492677D01*
X32005Y492635D01*
X32005Y241653D01*
X32022Y241579D01*
X32035Y241505D01*
X32042Y241494D01*
X32044Y241485D01*
X32068Y241456D01*
X32116Y241384D01*
X99144Y174356D01*
X99209Y174316D01*
X99271Y174272D01*
X99283Y174270D01*
X99292Y174265D01*
X99329Y174261D01*
X99413Y174245D01*
X141014Y174245D01*
X143441Y173239D01*
X157999Y158681D01*
X159005Y156254D01*
X159005Y111885D01*
X159016Y111835D01*
X159018Y111784D01*
X159036Y111752D01*
X159044Y111716D01*
X159077Y111677D01*
X159101Y111632D01*
X159131Y111611D01*
X159154Y111583D01*
X159201Y111562D01*
X159243Y111532D01*
X159285Y111524D01*
X159313Y111512D01*
X159343Y111513D01*
X159385Y111505D01*
X161584Y111505D01*
X163965Y109124D01*
X163965Y92756D01*
X162917Y91709D01*
X162890Y91666D01*
X162856Y91628D01*
X162845Y91593D01*
X162826Y91562D01*
X162821Y91511D01*
X162807Y91462D01*
X162813Y91426D01*
X162809Y91389D01*
X162827Y91342D01*
X162836Y91291D01*
X162860Y91256D01*
X162871Y91227D01*
X162893Y91206D01*
X162917Y91171D01*
X163965Y90124D01*
X163965Y73756D01*
X161584Y71375D01*
X151333Y71375D01*
X151259Y71358D01*
X151184Y71345D01*
X151174Y71338D01*
X151165Y71336D01*
X151136Y71312D01*
X151064Y71264D01*
X141595Y61795D01*
X139168Y60789D01*
X130209Y60789D01*
X130135Y60772D01*
X130061Y60759D01*
X130051Y60752D01*
X130041Y60750D01*
X130012Y60726D01*
X129941Y60678D01*
X126751Y57488D01*
X122456Y55709D01*
X102568Y55709D01*
X98273Y57488D01*
X94986Y60775D01*
X93207Y65070D01*
X93207Y69718D01*
X94986Y74013D01*
X98273Y77300D01*
X102568Y79079D01*
X122456Y79079D01*
X126751Y77300D01*
X129941Y74110D01*
X130005Y74070D01*
X130067Y74026D01*
X130079Y74024D01*
X130088Y74019D01*
X130125Y74015D01*
X130209Y73999D01*
X134961Y73999D01*
X135035Y74016D01*
X135109Y74029D01*
X135120Y74036D01*
X135129Y74038D01*
X135158Y74062D01*
X135230Y74110D01*
X140724Y79604D01*
X140764Y79669D01*
X140808Y79731D01*
X140810Y79743D01*
X140815Y79752D01*
X140819Y79789D01*
X140835Y79873D01*
X140835Y90124D01*
X141883Y91171D01*
X141910Y91214D01*
X141944Y91252D01*
X141955Y91287D01*
X141974Y91318D01*
X141979Y91369D01*
X141993Y91418D01*
X141987Y91454D01*
X141991Y91491D01*
X141973Y91538D01*
X141964Y91589D01*
X141940Y91624D01*
X141929Y91653D01*
X141907Y91674D01*
X141883Y91709D01*
X140835Y92756D01*
X140835Y109124D01*
X143216Y111505D01*
X145415Y111505D01*
X145465Y111516D01*
X145516Y111518D01*
X145548Y111536D01*
X145584Y111544D01*
X145623Y111577D01*
X145668Y111601D01*
X145689Y111631D01*
X145717Y111654D01*
X145738Y111701D01*
X145768Y111743D01*
X145776Y111785D01*
X145788Y111813D01*
X145787Y111843D01*
X145795Y111885D01*
X145795Y152047D01*
X145778Y152121D01*
X145765Y152195D01*
X145758Y152206D01*
X145756Y152215D01*
X145732Y152244D01*
X145684Y152316D01*
X137076Y160924D01*
X137011Y160964D01*
X136949Y161008D01*
X136937Y161010D01*
X136928Y161015D01*
X136891Y161019D01*
X136807Y161035D01*
X95206Y161035D01*
X92779Y162041D01*
X19801Y235019D01*
X18795Y237446D01*
X18795Y492635D01*
X18784Y492685D01*
X18782Y492736D01*
X18764Y492768D01*
X18756Y492804D01*
X18723Y492843D01*
X18699Y492888D01*
X18669Y492909D01*
X18646Y492937D01*
X18599Y492958D01*
X18557Y492988D01*
X18515Y492996D01*
X18487Y493008D01*
X18457Y493007D01*
X18415Y493015D01*
X16216Y493015D01*
X13835Y495396D01*
X13835Y511764D01*
X15960Y513889D01*
X15987Y513932D01*
X16022Y513970D01*
X16032Y514005D01*
X16052Y514036D01*
X16057Y514087D01*
X16071Y514136D01*
X16065Y514172D01*
X16068Y514208D01*
X16050Y514256D01*
X16041Y514306D01*
X16018Y514342D01*
X16007Y514370D01*
X15984Y514391D01*
X15960Y514426D01*
X15867Y514520D01*
X15532Y515099D01*
X15359Y515745D01*
X15359Y521819D01*
X25019Y521819D01*
X25069Y521830D01*
X25120Y521832D01*
X25152Y521850D01*
X25188Y521858D01*
X25227Y521891D01*
X25272Y521915D01*
X25293Y521945D01*
X25321Y521968D01*
X25342Y522015D01*
X25372Y522057D01*
X25380Y522099D01*
X25392Y522127D01*
X25391Y522157D01*
X25399Y522199D01*
X25399Y522581D01*
X25401Y522581D01*
X25401Y522199D01*
X25412Y522149D01*
X25414Y522098D01*
X25432Y522066D01*
X25440Y522030D01*
X25473Y521991D01*
X25497Y521946D01*
X25527Y521925D01*
X25551Y521897D01*
X25597Y521876D01*
X25639Y521846D01*
X25681Y521838D01*
X25709Y521826D01*
X25739Y521827D01*
X25781Y521819D01*
X35441Y521819D01*
X35441Y515745D01*
X35268Y515099D01*
X34933Y514520D01*
X34840Y514426D01*
X34813Y514383D01*
X34778Y514346D01*
X34768Y514310D01*
X34748Y514279D01*
X34743Y514229D01*
X34729Y514180D01*
X34735Y514143D01*
X34732Y514107D01*
X34750Y514059D01*
X34759Y514009D01*
X34782Y513974D01*
X34793Y513945D01*
X34816Y513924D01*
X34840Y513889D01*
X36971Y511757D01*
X36976Y511735D01*
X36978Y511684D01*
X36996Y511652D01*
X37004Y511616D01*
X37037Y511577D01*
X37061Y511532D01*
X37091Y511511D01*
X37114Y511483D01*
X37161Y511462D01*
X37203Y511432D01*
X37245Y511424D01*
X37273Y511412D01*
X37303Y511413D01*
X37345Y511405D01*
X43935Y511405D01*
X43985Y511416D01*
X44036Y511418D01*
X44068Y511436D01*
X44104Y511444D01*
X44143Y511477D01*
X44188Y511501D01*
X44209Y511531D01*
X44237Y511554D01*
X44258Y511601D01*
X44288Y511643D01*
X44296Y511685D01*
X44308Y511713D01*
X44307Y511743D01*
X44315Y511785D01*
X44315Y512984D01*
X46696Y515365D01*
X65064Y515365D01*
X67445Y512984D01*
X67445Y512445D01*
X67456Y512395D01*
X67458Y512344D01*
X67476Y512312D01*
X67484Y512276D01*
X67517Y512237D01*
X67541Y512192D01*
X67571Y512171D01*
X67594Y512143D01*
X67641Y512122D01*
X67683Y512092D01*
X67725Y512084D01*
X67753Y512072D01*
X67783Y512073D01*
X67825Y512065D01*
X80054Y512065D01*
X82481Y511059D01*
X84393Y509148D01*
X98424Y495116D01*
X98489Y495076D01*
X98551Y495032D01*
X98563Y495030D01*
X98572Y495025D01*
X98609Y495021D01*
X98693Y495005D01*
X124355Y495005D01*
X124405Y495016D01*
X124456Y495018D01*
X124488Y495036D01*
X124524Y495044D01*
X124563Y495077D01*
X124608Y495101D01*
X124629Y495131D01*
X124657Y495154D01*
X124678Y495201D01*
X124708Y495243D01*
X124716Y495285D01*
X124728Y495313D01*
X124727Y495343D01*
X124735Y495385D01*
X124735Y496084D01*
X127116Y498465D01*
X134355Y498465D01*
X134405Y498476D01*
X134456Y498478D01*
X134488Y498496D01*
X134524Y498504D01*
X134563Y498537D01*
X134608Y498561D01*
X134629Y498591D01*
X134657Y498614D01*
X134678Y498661D01*
X134708Y498703D01*
X134716Y498745D01*
X134728Y498773D01*
X134727Y498803D01*
X134735Y498845D01*
X134735Y571384D01*
X137116Y573765D01*
X305584Y573765D01*
X307965Y571384D01*
X307965Y504616D01*
X307974Y504578D01*
X307972Y504540D01*
X307993Y504495D01*
X308004Y504447D01*
X308029Y504417D01*
X308045Y504382D01*
X308083Y504351D01*
X308114Y504313D01*
X308150Y504297D01*
X308179Y504273D01*
X308227Y504262D01*
X308273Y504242D01*
X308311Y504244D01*
X308349Y504235D01*
X308408Y504247D01*
X308446Y504249D01*
X308464Y504259D01*
X308491Y504264D01*
X308926Y504445D01*
X338955Y504445D01*
X339029Y504462D01*
X339103Y504475D01*
X339114Y504482D01*
X339123Y504484D01*
X339152Y504508D01*
X339223Y504556D01*
X340260Y505593D01*
X343621Y506985D01*
X347259Y506985D01*
X350620Y505593D01*
X353193Y503020D01*
X354585Y499659D01*
X354585Y496021D01*
X353193Y492660D01*
X350620Y490087D01*
X347259Y488695D01*
X343621Y488695D01*
X340260Y490087D01*
X339223Y491124D01*
X339159Y491164D01*
X339097Y491208D01*
X339085Y491210D01*
X339076Y491215D01*
X339039Y491219D01*
X338955Y491235D01*
X315245Y491235D01*
X315195Y491224D01*
X315144Y491222D01*
X315112Y491204D01*
X315076Y491196D01*
X315037Y491163D01*
X314992Y491139D01*
X314971Y491109D01*
X314943Y491086D01*
X314922Y491039D01*
X314892Y490997D01*
X314884Y490955D01*
X314872Y490927D01*
X314873Y490897D01*
X314865Y490855D01*
X314865Y480716D01*
X312817Y478669D01*
X312790Y478626D01*
X312756Y478588D01*
X312745Y478553D01*
X312726Y478522D01*
X312721Y478471D01*
X312707Y478422D01*
X312713Y478386D01*
X312709Y478349D01*
X312727Y478301D01*
X312736Y478251D01*
X312760Y478216D01*
X312771Y478187D01*
X312793Y478166D01*
X312817Y478131D01*
X314865Y476084D01*
X314865Y474345D01*
X314876Y474295D01*
X314878Y474244D01*
X314896Y474212D01*
X314904Y474176D01*
X314937Y474137D01*
X314961Y474092D01*
X314991Y474071D01*
X315014Y474043D01*
X315061Y474022D01*
X315103Y473992D01*
X315145Y473984D01*
X315173Y473972D01*
X315203Y473973D01*
X315245Y473965D01*
X335155Y473965D01*
X335205Y473976D01*
X335256Y473978D01*
X335288Y473996D01*
X335324Y474004D01*
X335363Y474037D01*
X335408Y474061D01*
X335429Y474091D01*
X335457Y474114D01*
X335478Y474161D01*
X335508Y474203D01*
X335516Y474245D01*
X335528Y474273D01*
X335527Y474303D01*
X335535Y474345D01*
X335535Y476544D01*
X337916Y478925D01*
X354284Y478925D01*
X355331Y477877D01*
X355374Y477850D01*
X355412Y477816D01*
X355447Y477805D01*
X355478Y477786D01*
X355529Y477781D01*
X355578Y477767D01*
X355614Y477773D01*
X355651Y477769D01*
X355698Y477787D01*
X355749Y477796D01*
X355784Y477820D01*
X355813Y477831D01*
X355834Y477853D01*
X355869Y477877D01*
X356916Y478925D01*
X373284Y478925D01*
X374175Y478033D01*
X374218Y478006D01*
X374256Y477972D01*
X374291Y477961D01*
X374322Y477942D01*
X374373Y477937D01*
X374422Y477923D01*
X374458Y477929D01*
X374495Y477925D01*
X374542Y477943D01*
X374593Y477952D01*
X374628Y477976D01*
X374657Y477987D01*
X374677Y478009D01*
X374713Y478033D01*
X377259Y480579D01*
X379686Y481585D01*
X388703Y481585D01*
X388777Y481602D01*
X388851Y481615D01*
X388861Y481622D01*
X388871Y481624D01*
X388900Y481648D01*
X388971Y481696D01*
X392161Y484886D01*
X396456Y486665D01*
X416344Y486665D01*
X420639Y484886D01*
X423926Y481599D01*
X425705Y477304D01*
X425705Y472656D01*
X423926Y468361D01*
X420639Y465074D01*
X416344Y463295D01*
X396456Y463295D01*
X392161Y465074D01*
X388971Y468264D01*
X388907Y468304D01*
X388845Y468348D01*
X388833Y468350D01*
X388824Y468355D01*
X388787Y468359D01*
X388703Y468375D01*
X383893Y468375D01*
X383819Y468358D01*
X383745Y468345D01*
X383734Y468338D01*
X383725Y468336D01*
X383696Y468312D01*
X383624Y468264D01*
X377121Y461761D01*
X375899Y461255D01*
X375848Y461218D01*
X375792Y461187D01*
X375778Y461168D01*
X375759Y461154D01*
X375729Y461097D01*
X375692Y461046D01*
X375687Y461019D01*
X375677Y461001D01*
X375676Y460963D01*
X375665Y460903D01*
X375665Y458176D01*
X373284Y455795D01*
X356916Y455795D01*
X355869Y456843D01*
X355826Y456870D01*
X355788Y456904D01*
X355753Y456915D01*
X355722Y456934D01*
X355671Y456939D01*
X355622Y456953D01*
X355586Y456947D01*
X355549Y456951D01*
X355502Y456933D01*
X355451Y456924D01*
X355416Y456900D01*
X355387Y456889D01*
X355366Y456867D01*
X355331Y456843D01*
X354284Y455795D01*
X337916Y455795D01*
X335535Y458176D01*
X335535Y460375D01*
X335524Y460425D01*
X335522Y460476D01*
X335504Y460508D01*
X335496Y460544D01*
X335463Y460583D01*
X335439Y460628D01*
X335409Y460649D01*
X335386Y460677D01*
X335339Y460698D01*
X335297Y460728D01*
X335255Y460736D01*
X335227Y460748D01*
X335197Y460747D01*
X335155Y460755D01*
X315061Y460755D01*
X314987Y460738D01*
X314912Y460725D01*
X314902Y460718D01*
X314892Y460716D01*
X314864Y460692D01*
X314792Y460644D01*
X312817Y458669D01*
X312790Y458626D01*
X312756Y458588D01*
X312745Y458553D01*
X312726Y458522D01*
X312721Y458471D01*
X312707Y458422D01*
X312713Y458386D01*
X312709Y458349D01*
X312727Y458301D01*
X312736Y458251D01*
X312760Y458216D01*
X312771Y458187D01*
X312793Y458166D01*
X312817Y458131D01*
X314865Y456084D01*
X314865Y454025D01*
X314876Y453975D01*
X314878Y453924D01*
X314896Y453892D01*
X314904Y453856D01*
X314937Y453817D01*
X314961Y453772D01*
X314991Y453751D01*
X315014Y453723D01*
X315061Y453702D01*
X315103Y453672D01*
X315145Y453664D01*
X315173Y453652D01*
X315203Y453653D01*
X315245Y453645D01*
X326255Y453645D01*
X326329Y453662D01*
X326403Y453675D01*
X326414Y453682D01*
X326423Y453684D01*
X326452Y453708D01*
X326523Y453756D01*
X327560Y454793D01*
X330921Y456185D01*
X334559Y456185D01*
X337920Y454793D01*
X340493Y452220D01*
X341885Y448859D01*
X341885Y445221D01*
X340493Y441860D01*
X337920Y439287D01*
X336022Y438501D01*
X336001Y438486D01*
X335976Y438479D01*
X335932Y438436D01*
X335881Y438400D01*
X335869Y438377D01*
X335850Y438360D01*
X335829Y438302D01*
X335800Y438247D01*
X335799Y438221D01*
X335790Y438197D01*
X335797Y438136D01*
X335795Y438074D01*
X335806Y438051D01*
X335808Y438025D01*
X335842Y437973D01*
X335867Y437917D01*
X335887Y437900D01*
X335901Y437879D01*
X335973Y437831D01*
X336002Y437808D01*
X336012Y437805D01*
X336022Y437799D01*
X337920Y437013D01*
X340493Y434440D01*
X341885Y431079D01*
X341885Y427441D01*
X340493Y424080D01*
X337920Y421507D01*
X334559Y420115D01*
X330921Y420115D01*
X327560Y421507D01*
X326523Y422544D01*
X326459Y422584D01*
X326397Y422628D01*
X326385Y422630D01*
X326376Y422635D01*
X326339Y422639D01*
X326255Y422655D01*
X315245Y422655D01*
X315195Y422644D01*
X315144Y422642D01*
X315112Y422624D01*
X315076Y422616D01*
X315037Y422583D01*
X314992Y422559D01*
X314971Y422529D01*
X314943Y422506D01*
X314922Y422459D01*
X314892Y422417D01*
X314884Y422375D01*
X314872Y422347D01*
X314873Y422317D01*
X314865Y422275D01*
X314865Y420716D01*
X312817Y418669D01*
X312790Y418626D01*
X312756Y418588D01*
X312745Y418553D01*
X312726Y418522D01*
X312721Y418471D01*
X312707Y418422D01*
X312713Y418386D01*
X312709Y418349D01*
X312727Y418301D01*
X312736Y418251D01*
X312760Y418216D01*
X312771Y418187D01*
X312793Y418166D01*
X312817Y418131D01*
X314865Y416084D01*
X314865Y400716D01*
X312817Y398669D01*
X312794Y398632D01*
X312788Y398627D01*
X312784Y398619D01*
X312756Y398588D01*
X312745Y398553D01*
X312726Y398522D01*
X312722Y398479D01*
X312717Y398468D01*
X312717Y398458D01*
X312707Y398422D01*
X312713Y398386D01*
X312709Y398349D01*
X312723Y398314D01*
X312723Y398295D01*
X312731Y398282D01*
X312736Y398251D01*
X312760Y398216D01*
X312771Y398187D01*
X312793Y398166D01*
X312794Y398166D01*
X312806Y398143D01*
X312812Y398139D01*
X312817Y398131D01*
X314865Y396084D01*
X314865Y393725D01*
X314876Y393675D01*
X314878Y393624D01*
X314896Y393592D01*
X314904Y393556D01*
X314937Y393517D01*
X314961Y393472D01*
X314991Y393451D01*
X315014Y393423D01*
X315061Y393402D01*
X315103Y393372D01*
X315145Y393364D01*
X315173Y393352D01*
X315203Y393353D01*
X315245Y393345D01*
X338575Y393345D01*
X338625Y393356D01*
X338676Y393358D01*
X338708Y393376D01*
X338744Y393384D01*
X338783Y393417D01*
X338828Y393441D01*
X338849Y393471D01*
X338877Y393494D01*
X338898Y393541D01*
X338928Y393583D01*
X338936Y393625D01*
X338948Y393653D01*
X338947Y393683D01*
X338955Y393725D01*
X338955Y394924D01*
X340003Y395971D01*
X340030Y396014D01*
X340064Y396052D01*
X340075Y396087D01*
X340094Y396118D01*
X340099Y396169D01*
X340113Y396218D01*
X340107Y396254D01*
X340111Y396291D01*
X340093Y396338D01*
X340084Y396389D01*
X340060Y396424D01*
X340049Y396453D01*
X340027Y396474D01*
X340003Y396509D01*
X338955Y397556D01*
X338955Y413924D01*
X341336Y416305D01*
X359704Y416305D01*
X361046Y414962D01*
X361068Y414949D01*
X361084Y414929D01*
X361141Y414903D01*
X361193Y414871D01*
X361219Y414868D01*
X361243Y414858D01*
X361304Y414860D01*
X361366Y414854D01*
X361390Y414863D01*
X361416Y414864D01*
X361470Y414894D01*
X361528Y414916D01*
X361545Y414935D01*
X361568Y414947D01*
X361603Y414998D01*
X361645Y415043D01*
X361653Y415068D01*
X361668Y415089D01*
X361684Y415173D01*
X361695Y415209D01*
X361693Y415219D01*
X361695Y415231D01*
X361695Y435475D01*
X361678Y435549D01*
X361665Y435623D01*
X361658Y435634D01*
X361656Y435643D01*
X361632Y435672D01*
X361584Y435743D01*
X360547Y436780D01*
X359155Y440141D01*
X359155Y443779D01*
X360547Y447140D01*
X363120Y449713D01*
X366481Y451105D01*
X370119Y451105D01*
X373480Y449713D01*
X376053Y447140D01*
X377445Y443779D01*
X377445Y440141D01*
X376053Y436780D01*
X375016Y435743D01*
X374976Y435679D01*
X374932Y435617D01*
X374930Y435605D01*
X374925Y435596D01*
X374921Y435559D01*
X374905Y435475D01*
X374905Y406753D01*
X374917Y406702D01*
X374918Y406661D01*
X374929Y406642D01*
X374935Y406604D01*
X374942Y406594D01*
X374944Y406585D01*
X374968Y406556D01*
X375016Y406484D01*
X376004Y405496D01*
X376069Y405456D01*
X376131Y405412D01*
X376143Y405410D01*
X376152Y405405D01*
X376189Y405401D01*
X376273Y405385D01*
X421287Y405385D01*
X421361Y405402D01*
X421435Y405415D01*
X421446Y405422D01*
X421455Y405424D01*
X421484Y405448D01*
X421556Y405496D01*
X430164Y414104D01*
X430176Y414124D01*
X430191Y414136D01*
X430208Y414175D01*
X430248Y414231D01*
X430250Y414243D01*
X430255Y414252D01*
X430259Y414288D01*
X430262Y414294D01*
X430261Y414301D01*
X430275Y414373D01*
X430275Y484787D01*
X430258Y484861D01*
X430245Y484935D01*
X430238Y484946D01*
X430236Y484955D01*
X430212Y484984D01*
X430164Y485056D01*
X422961Y492259D01*
X422918Y492285D01*
X422880Y492320D01*
X422845Y492331D01*
X422814Y492350D01*
X422763Y492355D01*
X422714Y492369D01*
X422678Y492363D01*
X422641Y492367D01*
X422594Y492348D01*
X422543Y492340D01*
X422508Y492316D01*
X422479Y492305D01*
X422459Y492282D01*
X422423Y492259D01*
X420639Y490474D01*
X416344Y488695D01*
X396456Y488695D01*
X392161Y490474D01*
X388874Y493761D01*
X387095Y498056D01*
X387095Y502704D01*
X388874Y506999D01*
X392161Y510286D01*
X396456Y512065D01*
X416344Y512065D01*
X420639Y510286D01*
X423829Y507096D01*
X423893Y507056D01*
X423955Y507012D01*
X423967Y507010D01*
X423976Y507005D01*
X424013Y507001D01*
X424097Y506985D01*
X425494Y506985D01*
X427921Y505979D01*
X439190Y494710D01*
X439212Y494697D01*
X439228Y494677D01*
X439275Y494656D01*
X439317Y494627D01*
X439328Y494625D01*
X439337Y494619D01*
X439363Y494616D01*
X439387Y494606D01*
X439418Y494607D01*
X439459Y494599D01*
X439483Y494605D01*
X439510Y494602D01*
X439534Y494612D01*
X439560Y494613D01*
X439593Y494631D01*
X439628Y494639D01*
X439647Y494655D01*
X439672Y494664D01*
X439689Y494683D01*
X439712Y494695D01*
X439733Y494726D01*
X439761Y494749D01*
X439772Y494772D01*
X439789Y494791D01*
X439797Y494816D01*
X439812Y494837D01*
X439820Y494879D01*
X439832Y494907D01*
X439831Y494933D01*
X439839Y494957D01*
X439837Y494967D01*
X439839Y494979D01*
X439839Y589459D01*
X439828Y589509D01*
X439826Y589560D01*
X439808Y589592D01*
X439800Y589628D01*
X439767Y589667D01*
X439743Y589712D01*
X439713Y589733D01*
X439690Y589761D01*
X439643Y589782D01*
X439601Y589812D01*
X439559Y589820D01*
X439531Y589832D01*
X439501Y589831D01*
X439459Y589839D01*
X10541Y589839D01*
X10491Y589828D01*
X10440Y589826D01*
X10408Y589808D01*
X10372Y589800D01*
X10333Y589767D01*
X10288Y589743D01*
X10267Y589713D01*
X10239Y589690D01*
X10218Y589643D01*
X10188Y589601D01*
X10180Y589559D01*
X10168Y589531D01*
X10169Y589501D01*
X10161Y589459D01*
X10161Y10541D01*
X10172Y10491D01*
X10174Y10440D01*
X10192Y10408D01*
X10200Y10372D01*
X10233Y10333D01*
X10257Y10288D01*
X10287Y10267D01*
X10310Y10239D01*
X10357Y10218D01*
X10399Y10188D01*
X10441Y10180D01*
X10469Y10168D01*
X10499Y10169D01*
X10541Y10161D01*
X128155Y10161D01*
X128167Y10164D01*
G37*
G36*
X124405Y354596D02*
X124405Y354596D01*
X124456Y354598D01*
X124488Y354616D01*
X124524Y354624D01*
X124563Y354657D01*
X124608Y354681D01*
X124629Y354711D01*
X124657Y354734D01*
X124678Y354781D01*
X124708Y354823D01*
X124716Y354865D01*
X124728Y354893D01*
X124727Y354923D01*
X124735Y354965D01*
X124735Y356084D01*
X126783Y358131D01*
X126810Y358174D01*
X126844Y358212D01*
X126855Y358247D01*
X126874Y358278D01*
X126879Y358329D01*
X126893Y358378D01*
X126887Y358414D01*
X126891Y358451D01*
X126873Y358499D01*
X126864Y358549D01*
X126840Y358584D01*
X126829Y358613D01*
X126807Y358634D01*
X126783Y358669D01*
X124735Y360716D01*
X124735Y376084D01*
X126783Y378131D01*
X126810Y378174D01*
X126844Y378212D01*
X126855Y378247D01*
X126874Y378278D01*
X126879Y378329D01*
X126893Y378378D01*
X126887Y378414D01*
X126891Y378451D01*
X126873Y378498D01*
X126864Y378549D01*
X126840Y378584D01*
X126829Y378613D01*
X126807Y378634D01*
X126783Y378669D01*
X124735Y380716D01*
X124735Y396084D01*
X126783Y398131D01*
X126795Y398152D01*
X126812Y398165D01*
X126823Y398188D01*
X126844Y398212D01*
X126855Y398247D01*
X126874Y398278D01*
X126877Y398310D01*
X126883Y398324D01*
X126882Y398341D01*
X126893Y398378D01*
X126887Y398414D01*
X126891Y398451D01*
X126877Y398487D01*
X126877Y398497D01*
X126871Y398507D01*
X126864Y398549D01*
X126840Y398584D01*
X126829Y398613D01*
X126807Y398634D01*
X126783Y398669D01*
X124735Y400716D01*
X124735Y416084D01*
X126783Y418131D01*
X126810Y418174D01*
X126844Y418212D01*
X126855Y418247D01*
X126874Y418278D01*
X126879Y418329D01*
X126893Y418378D01*
X126887Y418414D01*
X126891Y418451D01*
X126873Y418498D01*
X126864Y418549D01*
X126840Y418584D01*
X126829Y418613D01*
X126807Y418634D01*
X126783Y418669D01*
X124735Y420716D01*
X124735Y421415D01*
X124724Y421465D01*
X124722Y421516D01*
X124704Y421548D01*
X124696Y421584D01*
X124663Y421623D01*
X124639Y421668D01*
X124609Y421689D01*
X124586Y421717D01*
X124539Y421738D01*
X124497Y421768D01*
X124455Y421776D01*
X124427Y421788D01*
X124397Y421787D01*
X124355Y421795D01*
X104293Y421795D01*
X104219Y421778D01*
X104145Y421765D01*
X104134Y421758D01*
X104125Y421756D01*
X104096Y421732D01*
X104024Y421684D01*
X103116Y420776D01*
X103076Y420711D01*
X103032Y420649D01*
X103030Y420637D01*
X103025Y420628D01*
X103021Y420591D01*
X103005Y420507D01*
X103005Y410256D01*
X101957Y409209D01*
X101930Y409166D01*
X101896Y409128D01*
X101885Y409093D01*
X101866Y409062D01*
X101861Y409011D01*
X101847Y408962D01*
X101853Y408926D01*
X101849Y408889D01*
X101867Y408842D01*
X101876Y408791D01*
X101900Y408756D01*
X101911Y408727D01*
X101933Y408706D01*
X101957Y408671D01*
X103005Y407624D01*
X103005Y391256D01*
X100624Y388875D01*
X82256Y388875D01*
X79875Y391256D01*
X79875Y393398D01*
X79861Y393459D01*
X79854Y393523D01*
X79841Y393543D01*
X79836Y393566D01*
X79795Y393615D01*
X79761Y393669D01*
X79739Y393684D01*
X79726Y393700D01*
X79691Y393715D01*
X79641Y393749D01*
X79419Y393841D01*
X66533Y406727D01*
X66489Y406754D01*
X66450Y406789D01*
X66416Y406799D01*
X66411Y406803D01*
X66403Y406808D01*
X66402Y406808D01*
X66386Y406818D01*
X66334Y406823D01*
X66284Y406838D01*
X66266Y406834D01*
X66261Y406835D01*
X50736Y406835D01*
X48355Y409216D01*
X48355Y424584D01*
X50736Y426965D01*
X66104Y426965D01*
X68485Y424584D01*
X68485Y423150D01*
X68499Y423088D01*
X68506Y423025D01*
X68519Y423004D01*
X68524Y422981D01*
X68565Y422932D01*
X68599Y422878D01*
X68621Y422863D01*
X68634Y422847D01*
X68669Y422832D01*
X68719Y422798D01*
X69441Y422499D01*
X79226Y412714D01*
X79248Y412701D01*
X79264Y412681D01*
X79321Y412656D01*
X79373Y412623D01*
X79399Y412620D01*
X79423Y412610D01*
X79484Y412612D01*
X79546Y412606D01*
X79570Y412616D01*
X79596Y412617D01*
X79650Y412646D01*
X79708Y412668D01*
X79725Y412687D01*
X79748Y412699D01*
X79783Y412750D01*
X79825Y412795D01*
X79833Y412820D01*
X79848Y412841D01*
X79864Y412926D01*
X79875Y412961D01*
X79873Y412971D01*
X79875Y412983D01*
X79875Y426624D01*
X82256Y429005D01*
X92507Y429005D01*
X92581Y429022D01*
X92655Y429035D01*
X92666Y429042D01*
X92675Y429044D01*
X92704Y429068D01*
X92776Y429116D01*
X97659Y433999D01*
X100086Y435005D01*
X124355Y435005D01*
X124405Y435016D01*
X124456Y435018D01*
X124488Y435036D01*
X124524Y435044D01*
X124563Y435077D01*
X124608Y435101D01*
X124629Y435131D01*
X124657Y435154D01*
X124678Y435201D01*
X124708Y435243D01*
X124716Y435285D01*
X124728Y435313D01*
X124727Y435343D01*
X124735Y435385D01*
X124735Y436084D01*
X126783Y438131D01*
X126810Y438174D01*
X126844Y438212D01*
X126855Y438247D01*
X126874Y438278D01*
X126879Y438329D01*
X126893Y438378D01*
X126887Y438414D01*
X126891Y438451D01*
X126873Y438498D01*
X126864Y438549D01*
X126840Y438584D01*
X126829Y438613D01*
X126807Y438634D01*
X126783Y438669D01*
X124735Y440716D01*
X124735Y441415D01*
X124724Y441465D01*
X124722Y441516D01*
X124704Y441548D01*
X124696Y441584D01*
X124663Y441623D01*
X124639Y441668D01*
X124609Y441689D01*
X124586Y441717D01*
X124539Y441738D01*
X124497Y441768D01*
X124455Y441776D01*
X124427Y441788D01*
X124397Y441787D01*
X124355Y441795D01*
X109086Y441795D01*
X106659Y442801D01*
X98976Y450484D01*
X98911Y450524D01*
X98849Y450568D01*
X98837Y450570D01*
X98828Y450575D01*
X98791Y450579D01*
X98707Y450595D01*
X94105Y450595D01*
X94055Y450584D01*
X94004Y450582D01*
X93972Y450564D01*
X93936Y450556D01*
X93897Y450523D01*
X93852Y450499D01*
X93831Y450469D01*
X93803Y450446D01*
X93782Y450399D01*
X93752Y450357D01*
X93744Y450315D01*
X93732Y450287D01*
X93733Y450257D01*
X93725Y450215D01*
X93725Y448016D01*
X91344Y445635D01*
X74976Y445635D01*
X73929Y446683D01*
X73886Y446710D01*
X73848Y446744D01*
X73813Y446755D01*
X73782Y446774D01*
X73731Y446779D01*
X73682Y446793D01*
X73646Y446787D01*
X73609Y446791D01*
X73562Y446773D01*
X73511Y446764D01*
X73476Y446740D01*
X73447Y446729D01*
X73426Y446707D01*
X73391Y446683D01*
X72344Y445635D01*
X55976Y445635D01*
X53595Y448016D01*
X53595Y450215D01*
X53584Y450265D01*
X53582Y450316D01*
X53564Y450348D01*
X53556Y450384D01*
X53523Y450423D01*
X53499Y450468D01*
X53469Y450489D01*
X53446Y450517D01*
X53399Y450538D01*
X53357Y450568D01*
X53315Y450576D01*
X53287Y450588D01*
X53257Y450587D01*
X53215Y450595D01*
X51153Y450595D01*
X51079Y450578D01*
X51005Y450565D01*
X50994Y450558D01*
X50985Y450556D01*
X50956Y450532D01*
X50884Y450484D01*
X47356Y446956D01*
X47343Y446934D01*
X47324Y446918D01*
X47303Y446873D01*
X47272Y446829D01*
X47270Y446817D01*
X47265Y446808D01*
X47262Y446781D01*
X47253Y446760D01*
X47254Y446733D01*
X47245Y446687D01*
X47245Y361033D01*
X47262Y360959D01*
X47275Y360885D01*
X47282Y360874D01*
X47284Y360865D01*
X47308Y360836D01*
X47356Y360764D01*
X53424Y354696D01*
X53489Y354656D01*
X53551Y354612D01*
X53563Y354610D01*
X53572Y354605D01*
X53609Y354601D01*
X53693Y354585D01*
X124355Y354585D01*
X124405Y354596D01*
G37*
%LPC*%
G36*
X228816Y211835D02*
X228816Y211835D01*
X224521Y213614D01*
X221331Y216804D01*
X221267Y216844D01*
X221205Y216888D01*
X221193Y216890D01*
X221184Y216895D01*
X221147Y216899D01*
X221063Y216915D01*
X215926Y216915D01*
X213499Y217921D01*
X208516Y222904D01*
X208451Y222944D01*
X208389Y222988D01*
X208377Y222990D01*
X208368Y222995D01*
X208331Y222999D01*
X208247Y223015D01*
X197996Y223015D01*
X195871Y225140D01*
X195828Y225167D01*
X195790Y225202D01*
X195755Y225212D01*
X195724Y225232D01*
X195673Y225237D01*
X195624Y225251D01*
X195588Y225245D01*
X195552Y225248D01*
X195504Y225230D01*
X195454Y225221D01*
X195418Y225198D01*
X195390Y225187D01*
X195369Y225164D01*
X195334Y225140D01*
X195240Y225047D01*
X194661Y224712D01*
X194015Y224539D01*
X187941Y224539D01*
X187941Y234199D01*
X187930Y234249D01*
X187928Y234300D01*
X187910Y234332D01*
X187902Y234368D01*
X187869Y234407D01*
X187845Y234452D01*
X187815Y234473D01*
X187791Y234501D01*
X187745Y234522D01*
X187703Y234552D01*
X187661Y234560D01*
X187633Y234572D01*
X187603Y234571D01*
X187561Y234579D01*
X187179Y234579D01*
X187179Y234581D01*
X187561Y234581D01*
X187611Y234592D01*
X187662Y234594D01*
X187694Y234612D01*
X187730Y234620D01*
X187769Y234653D01*
X187814Y234677D01*
X187835Y234707D01*
X187863Y234731D01*
X187884Y234777D01*
X187914Y234819D01*
X187922Y234861D01*
X187934Y234889D01*
X187933Y234919D01*
X187941Y234961D01*
X187941Y244621D01*
X194015Y244621D01*
X194661Y244448D01*
X195240Y244113D01*
X195334Y244020D01*
X195377Y243993D01*
X195414Y243958D01*
X195450Y243948D01*
X195481Y243928D01*
X195531Y243923D01*
X195580Y243909D01*
X195617Y243915D01*
X195653Y243912D01*
X195701Y243930D01*
X195751Y243939D01*
X195786Y243962D01*
X195815Y243973D01*
X195836Y243996D01*
X195871Y244020D01*
X197996Y246145D01*
X198257Y246145D01*
X198282Y246151D01*
X198308Y246148D01*
X198365Y246170D01*
X198426Y246184D01*
X198445Y246201D01*
X198470Y246210D01*
X198511Y246255D01*
X198559Y246294D01*
X198570Y246318D01*
X198587Y246337D01*
X198605Y246396D01*
X198630Y246453D01*
X198629Y246478D01*
X198636Y246503D01*
X198626Y246564D01*
X198623Y246626D01*
X198611Y246648D01*
X198607Y246674D01*
X198558Y246745D01*
X198541Y246778D01*
X198533Y246784D01*
X198526Y246794D01*
X198036Y247284D01*
X197971Y247324D01*
X197909Y247368D01*
X197897Y247370D01*
X197888Y247375D01*
X197851Y247379D01*
X197767Y247395D01*
X164490Y247395D01*
X164440Y247384D01*
X164389Y247382D01*
X164357Y247364D01*
X164321Y247356D01*
X164282Y247323D01*
X164237Y247299D01*
X164216Y247269D01*
X164188Y247246D01*
X164167Y247199D01*
X164137Y247157D01*
X164129Y247115D01*
X164117Y247087D01*
X164118Y247057D01*
X164110Y247015D01*
X164110Y244611D01*
X161729Y242230D01*
X136011Y242230D01*
X133630Y244611D01*
X133630Y260169D01*
X136011Y262550D01*
X161729Y262550D01*
X163562Y260716D01*
X163627Y260676D01*
X163689Y260632D01*
X163701Y260630D01*
X163709Y260625D01*
X163747Y260621D01*
X163831Y260605D01*
X180975Y260605D01*
X181025Y260616D01*
X181076Y260618D01*
X181108Y260636D01*
X181144Y260644D01*
X181183Y260677D01*
X181228Y260701D01*
X181249Y260731D01*
X181277Y260754D01*
X181298Y260801D01*
X181328Y260843D01*
X181336Y260885D01*
X181348Y260913D01*
X181347Y260943D01*
X181355Y260985D01*
X181355Y261955D01*
X181344Y262005D01*
X181342Y262056D01*
X181324Y262088D01*
X181316Y262124D01*
X181283Y262163D01*
X181259Y262208D01*
X181229Y262229D01*
X181206Y262257D01*
X181159Y262278D01*
X181117Y262308D01*
X181075Y262316D01*
X181047Y262328D01*
X181017Y262327D01*
X180975Y262335D01*
X179336Y262335D01*
X176955Y264716D01*
X176955Y283084D01*
X179336Y285465D01*
X195704Y285465D01*
X197829Y283340D01*
X197872Y283313D01*
X197910Y283278D01*
X197945Y283268D01*
X197976Y283248D01*
X198027Y283243D01*
X198076Y283229D01*
X198112Y283235D01*
X198148Y283232D01*
X198196Y283250D01*
X198246Y283259D01*
X198282Y283282D01*
X198310Y283293D01*
X198331Y283316D01*
X198366Y283340D01*
X198460Y283433D01*
X199039Y283768D01*
X199685Y283941D01*
X205759Y283941D01*
X205759Y274281D01*
X205770Y274231D01*
X205772Y274180D01*
X205790Y274148D01*
X205798Y274112D01*
X205831Y274073D01*
X205855Y274028D01*
X205885Y274007D01*
X205908Y273979D01*
X205955Y273958D01*
X205997Y273928D01*
X206039Y273920D01*
X206067Y273908D01*
X206097Y273909D01*
X206139Y273901D01*
X206521Y273901D01*
X206521Y273899D01*
X206139Y273899D01*
X206089Y273888D01*
X206038Y273886D01*
X206006Y273868D01*
X205970Y273860D01*
X205931Y273827D01*
X205886Y273803D01*
X205865Y273773D01*
X205837Y273749D01*
X205816Y273703D01*
X205786Y273661D01*
X205778Y273619D01*
X205766Y273591D01*
X205767Y273561D01*
X205759Y273519D01*
X205759Y263859D01*
X199685Y263859D01*
X199039Y264032D01*
X198460Y264367D01*
X198366Y264460D01*
X198323Y264487D01*
X198286Y264522D01*
X198250Y264532D01*
X198219Y264552D01*
X198169Y264557D01*
X198120Y264571D01*
X198083Y264565D01*
X198047Y264568D01*
X197999Y264550D01*
X197949Y264541D01*
X197914Y264518D01*
X197885Y264507D01*
X197864Y264484D01*
X197829Y264460D01*
X195704Y262335D01*
X194945Y262335D01*
X194895Y262324D01*
X194844Y262322D01*
X194812Y262304D01*
X194776Y262296D01*
X194737Y262263D01*
X194692Y262239D01*
X194671Y262209D01*
X194643Y262186D01*
X194622Y262139D01*
X194592Y262097D01*
X194584Y262055D01*
X194572Y262027D01*
X194573Y261997D01*
X194565Y261955D01*
X194565Y260985D01*
X194576Y260935D01*
X194578Y260884D01*
X194596Y260852D01*
X194604Y260816D01*
X194637Y260777D01*
X194661Y260732D01*
X194691Y260711D01*
X194714Y260683D01*
X194761Y260662D01*
X194803Y260632D01*
X194845Y260624D01*
X194873Y260612D01*
X194903Y260613D01*
X194945Y260605D01*
X201974Y260605D01*
X204401Y259599D01*
X214319Y249681D01*
X215325Y247254D01*
X215325Y245341D01*
X215342Y245267D01*
X215355Y245192D01*
X215362Y245182D01*
X215364Y245172D01*
X215388Y245144D01*
X215436Y245072D01*
X216745Y243764D01*
X216745Y233513D01*
X216762Y233439D01*
X216775Y233365D01*
X216782Y233354D01*
X216784Y233345D01*
X216808Y233316D01*
X216856Y233244D01*
X219864Y230236D01*
X219929Y230196D01*
X219991Y230152D01*
X220003Y230150D01*
X220012Y230145D01*
X220049Y230141D01*
X220133Y230125D01*
X221063Y230125D01*
X221137Y230142D01*
X221211Y230155D01*
X221221Y230162D01*
X221231Y230164D01*
X221260Y230188D01*
X221331Y230236D01*
X224521Y233426D01*
X228816Y235205D01*
X248704Y235205D01*
X252999Y233426D01*
X256189Y230236D01*
X256253Y230196D01*
X256315Y230152D01*
X256327Y230150D01*
X256336Y230145D01*
X256373Y230141D01*
X256457Y230125D01*
X261703Y230125D01*
X261777Y230142D01*
X261851Y230155D01*
X261861Y230162D01*
X261871Y230164D01*
X261900Y230188D01*
X261971Y230236D01*
X265161Y233426D01*
X269456Y235205D01*
X289344Y235205D01*
X293639Y233426D01*
X296926Y230139D01*
X298705Y225844D01*
X298705Y221196D01*
X296926Y216901D01*
X293639Y213614D01*
X289344Y211835D01*
X269456Y211835D01*
X265161Y213614D01*
X261971Y216804D01*
X261907Y216844D01*
X261845Y216888D01*
X261833Y216890D01*
X261824Y216895D01*
X261787Y216899D01*
X261703Y216915D01*
X256457Y216915D01*
X256383Y216898D01*
X256309Y216885D01*
X256299Y216878D01*
X256289Y216876D01*
X256260Y216852D01*
X256189Y216804D01*
X252999Y213614D01*
X248704Y211835D01*
X228816Y211835D01*
G37*
%LPD*%
%LPC*%
G36*
X161116Y314335D02*
X161116Y314335D01*
X158735Y316716D01*
X158735Y340084D01*
X161116Y342465D01*
X176484Y342465D01*
X178531Y340417D01*
X178574Y340390D01*
X178612Y340356D01*
X178647Y340345D01*
X178678Y340326D01*
X178729Y340321D01*
X178778Y340307D01*
X178814Y340313D01*
X178851Y340309D01*
X178898Y340327D01*
X178949Y340336D01*
X178984Y340360D01*
X179013Y340371D01*
X179034Y340393D01*
X179069Y340417D01*
X181116Y342465D01*
X196484Y342465D01*
X198531Y340417D01*
X198574Y340390D01*
X198612Y340356D01*
X198647Y340345D01*
X198678Y340326D01*
X198729Y340321D01*
X198778Y340307D01*
X198814Y340313D01*
X198851Y340309D01*
X198898Y340327D01*
X198949Y340336D01*
X198984Y340360D01*
X199013Y340371D01*
X199034Y340393D01*
X199069Y340417D01*
X201116Y342465D01*
X216484Y342465D01*
X218531Y340417D01*
X218574Y340390D01*
X218612Y340356D01*
X218647Y340345D01*
X218678Y340326D01*
X218729Y340321D01*
X218778Y340307D01*
X218814Y340313D01*
X218851Y340309D01*
X218898Y340327D01*
X218949Y340336D01*
X218984Y340360D01*
X219013Y340371D01*
X219034Y340393D01*
X219069Y340417D01*
X221116Y342465D01*
X236484Y342465D01*
X238531Y340417D01*
X238574Y340390D01*
X238612Y340356D01*
X238647Y340345D01*
X238678Y340326D01*
X238729Y340321D01*
X238778Y340307D01*
X238814Y340313D01*
X238851Y340309D01*
X238899Y340327D01*
X238949Y340336D01*
X238984Y340360D01*
X239013Y340371D01*
X239034Y340393D01*
X239069Y340417D01*
X241116Y342465D01*
X256484Y342465D01*
X258531Y340417D01*
X258574Y340390D01*
X258612Y340356D01*
X258647Y340345D01*
X258678Y340326D01*
X258729Y340321D01*
X258778Y340307D01*
X258814Y340313D01*
X258851Y340309D01*
X258898Y340327D01*
X258949Y340336D01*
X258984Y340360D01*
X259013Y340371D01*
X259034Y340393D01*
X259069Y340417D01*
X261116Y342465D01*
X276484Y342465D01*
X278865Y340084D01*
X278865Y316716D01*
X276484Y314335D01*
X261116Y314335D01*
X259069Y316383D01*
X259026Y316410D01*
X258988Y316444D01*
X258953Y316455D01*
X258922Y316474D01*
X258871Y316479D01*
X258822Y316493D01*
X258786Y316487D01*
X258749Y316491D01*
X258701Y316473D01*
X258651Y316464D01*
X258616Y316440D01*
X258587Y316429D01*
X258566Y316407D01*
X258531Y316383D01*
X256484Y314335D01*
X241116Y314335D01*
X239069Y316383D01*
X239026Y316410D01*
X238988Y316444D01*
X238953Y316455D01*
X238922Y316474D01*
X238871Y316479D01*
X238822Y316493D01*
X238786Y316487D01*
X238749Y316491D01*
X238702Y316473D01*
X238651Y316464D01*
X238616Y316440D01*
X238587Y316429D01*
X238566Y316407D01*
X238531Y316383D01*
X236484Y314335D01*
X221116Y314335D01*
X219069Y316383D01*
X219026Y316410D01*
X218988Y316444D01*
X218953Y316455D01*
X218922Y316474D01*
X218871Y316479D01*
X218822Y316493D01*
X218786Y316487D01*
X218749Y316491D01*
X218701Y316473D01*
X218651Y316464D01*
X218616Y316440D01*
X218587Y316429D01*
X218566Y316407D01*
X218531Y316383D01*
X216484Y314335D01*
X201116Y314335D01*
X199069Y316383D01*
X199026Y316410D01*
X198988Y316444D01*
X198953Y316455D01*
X198922Y316474D01*
X198871Y316479D01*
X198822Y316493D01*
X198786Y316487D01*
X198749Y316491D01*
X198701Y316473D01*
X198651Y316464D01*
X198616Y316440D01*
X198587Y316429D01*
X198566Y316407D01*
X198531Y316383D01*
X196484Y314335D01*
X181116Y314335D01*
X179069Y316383D01*
X179026Y316410D01*
X178988Y316444D01*
X178953Y316455D01*
X178922Y316474D01*
X178871Y316479D01*
X178822Y316493D01*
X178786Y316487D01*
X178749Y316491D01*
X178701Y316473D01*
X178651Y316464D01*
X178616Y316440D01*
X178587Y316429D01*
X178566Y316407D01*
X178531Y316383D01*
X176484Y314335D01*
X161116Y314335D01*
G37*
%LPD*%
%LPC*%
G36*
X339187Y514839D02*
X339187Y514839D01*
X332788Y516554D01*
X327051Y519866D01*
X322366Y524551D01*
X319054Y530288D01*
X318503Y532345D01*
X317339Y536687D01*
X317339Y543313D01*
X319054Y549712D01*
X322366Y555449D01*
X327051Y560134D01*
X332788Y563446D01*
X339187Y565161D01*
X345813Y565161D01*
X352212Y563446D01*
X357949Y560134D01*
X362634Y555449D01*
X365946Y549712D01*
X367661Y543313D01*
X367661Y536687D01*
X365946Y530288D01*
X362634Y524551D01*
X357949Y519866D01*
X352212Y516554D01*
X345813Y514839D01*
X339187Y514839D01*
G37*
%LPD*%
%LPC*%
G36*
X94187Y514839D02*
X94187Y514839D01*
X87788Y516554D01*
X82051Y519866D01*
X77366Y524551D01*
X74054Y530288D01*
X73503Y532345D01*
X72339Y536687D01*
X72339Y543313D01*
X74054Y549712D01*
X77366Y555449D01*
X82051Y560134D01*
X87788Y563446D01*
X94187Y565161D01*
X100813Y565161D01*
X107212Y563446D01*
X112949Y560134D01*
X117634Y555449D01*
X120946Y549712D01*
X122661Y543313D01*
X122661Y536687D01*
X120946Y530288D01*
X117634Y524551D01*
X112949Y519866D01*
X107212Y516554D01*
X100813Y514839D01*
X94187Y514839D01*
G37*
%LPD*%
%LPC*%
G36*
X389187Y139839D02*
X389187Y139839D01*
X382788Y141554D01*
X377051Y144866D01*
X372366Y149551D01*
X369054Y155288D01*
X368279Y158179D01*
X367339Y161687D01*
X367339Y168313D01*
X369054Y174712D01*
X372366Y180449D01*
X377051Y185134D01*
X382788Y188446D01*
X389187Y190161D01*
X395813Y190161D01*
X402212Y188446D01*
X407949Y185134D01*
X412634Y180449D01*
X415946Y174712D01*
X417475Y169005D01*
X417475Y169004D01*
X417661Y168313D01*
X417661Y161687D01*
X415946Y155288D01*
X412634Y149551D01*
X407949Y144866D01*
X402212Y141554D01*
X395813Y139839D01*
X389187Y139839D01*
G37*
%LPD*%
%LPC*%
G36*
X44187Y139839D02*
X44187Y139839D01*
X37788Y141554D01*
X32051Y144866D01*
X27366Y149551D01*
X24054Y155288D01*
X23279Y158179D01*
X22339Y161687D01*
X22339Y168313D01*
X24054Y174712D01*
X27366Y180449D01*
X32051Y185134D01*
X37788Y188446D01*
X44187Y190161D01*
X50813Y190161D01*
X57212Y188446D01*
X62949Y185134D01*
X67634Y180449D01*
X70946Y174712D01*
X72475Y169005D01*
X72475Y169004D01*
X72661Y168313D01*
X72661Y161687D01*
X70946Y155288D01*
X67634Y149551D01*
X62949Y144866D01*
X57212Y141554D01*
X50813Y139839D01*
X44187Y139839D01*
G37*
%LPD*%
%LPC*%
G36*
X396456Y260775D02*
X396456Y260775D01*
X392161Y262554D01*
X388874Y265841D01*
X387095Y270136D01*
X387095Y274784D01*
X388874Y279079D01*
X392161Y282366D01*
X396456Y284145D01*
X416344Y284145D01*
X420639Y282366D01*
X423926Y279079D01*
X425705Y274784D01*
X425705Y270136D01*
X423926Y265841D01*
X420639Y262554D01*
X416344Y260775D01*
X396456Y260775D01*
G37*
%LPD*%
%LPC*%
G36*
X396456Y514095D02*
X396456Y514095D01*
X392161Y515874D01*
X388874Y519161D01*
X387095Y523456D01*
X387095Y528104D01*
X388874Y532399D01*
X392161Y535686D01*
X396456Y537465D01*
X416344Y537465D01*
X420639Y535686D01*
X423926Y532399D01*
X425705Y528104D01*
X425705Y523456D01*
X423926Y519161D01*
X420639Y515874D01*
X416344Y514095D01*
X396456Y514095D01*
G37*
%LPD*%
%LPC*%
G36*
X396456Y437895D02*
X396456Y437895D01*
X392161Y439674D01*
X388874Y442961D01*
X387095Y447256D01*
X387095Y451904D01*
X388874Y456199D01*
X392161Y459486D01*
X396456Y461265D01*
X416344Y461265D01*
X420639Y459486D01*
X423926Y456199D01*
X425705Y451904D01*
X425705Y447256D01*
X423926Y442961D01*
X420639Y439674D01*
X416344Y437895D01*
X396456Y437895D01*
G37*
%LPD*%
%LPC*%
G36*
X396456Y412495D02*
X396456Y412495D01*
X392161Y414274D01*
X388874Y417561D01*
X387095Y421856D01*
X387095Y426504D01*
X388874Y430799D01*
X392161Y434086D01*
X396456Y435865D01*
X416344Y435865D01*
X420639Y434086D01*
X423926Y430799D01*
X425705Y426504D01*
X425705Y421856D01*
X423926Y417561D01*
X420639Y414274D01*
X416344Y412495D01*
X396456Y412495D01*
G37*
%LPD*%
%LPC*%
G36*
X392568Y55709D02*
X392568Y55709D01*
X388273Y57488D01*
X384986Y60775D01*
X383207Y65070D01*
X383207Y69718D01*
X384986Y74013D01*
X388273Y77300D01*
X392568Y79079D01*
X412456Y79079D01*
X416751Y77300D01*
X420038Y74013D01*
X421817Y69718D01*
X421817Y65070D01*
X420038Y60775D01*
X416751Y57488D01*
X412456Y55709D01*
X392568Y55709D01*
G37*
%LPD*%
%LPC*%
G36*
X182544Y55709D02*
X182544Y55709D01*
X178249Y57488D01*
X174962Y60775D01*
X173183Y65070D01*
X173183Y69718D01*
X174962Y74013D01*
X178249Y77300D01*
X182544Y79079D01*
X202432Y79079D01*
X206727Y77300D01*
X210014Y74013D01*
X211793Y69718D01*
X211793Y65070D01*
X210014Y60775D01*
X206727Y57488D01*
X202432Y55709D01*
X182544Y55709D01*
G37*
%LPD*%
%LPC*%
G36*
X37544Y55709D02*
X37544Y55709D01*
X33249Y57488D01*
X29962Y60775D01*
X28183Y65070D01*
X28183Y69718D01*
X29962Y74013D01*
X33249Y77300D01*
X37544Y79079D01*
X57432Y79079D01*
X61727Y77300D01*
X65014Y74013D01*
X66793Y69718D01*
X66793Y65070D01*
X65014Y60775D01*
X61727Y57488D01*
X57432Y55709D01*
X37544Y55709D01*
G37*
%LPD*%
%LPC*%
G36*
X247568Y55709D02*
X247568Y55709D01*
X243273Y57488D01*
X239986Y60775D01*
X238207Y65070D01*
X238207Y69718D01*
X239986Y74013D01*
X243273Y77300D01*
X247568Y79079D01*
X267456Y79079D01*
X271751Y77300D01*
X275038Y74013D01*
X276817Y69718D01*
X276817Y65070D01*
X275038Y60775D01*
X271751Y57488D01*
X267456Y55709D01*
X247568Y55709D01*
G37*
%LPD*%
%LPC*%
G36*
X392568Y100921D02*
X392568Y100921D01*
X388273Y102700D01*
X384986Y105987D01*
X383207Y110282D01*
X383207Y114930D01*
X384986Y119225D01*
X388273Y122512D01*
X392568Y124291D01*
X412456Y124291D01*
X416751Y122512D01*
X420038Y119225D01*
X421817Y114930D01*
X421817Y110282D01*
X420038Y105987D01*
X416751Y102700D01*
X412456Y100921D01*
X392568Y100921D01*
G37*
%LPD*%
%LPC*%
G36*
X182544Y100921D02*
X182544Y100921D01*
X178249Y102700D01*
X174962Y105987D01*
X173183Y110282D01*
X173183Y114930D01*
X174962Y119225D01*
X178249Y122512D01*
X182544Y124291D01*
X202432Y124291D01*
X206727Y122512D01*
X210014Y119225D01*
X211793Y114930D01*
X211793Y110282D01*
X210014Y105987D01*
X206727Y102700D01*
X202432Y100921D01*
X182544Y100921D01*
G37*
%LPD*%
%LPC*%
G36*
X37544Y100921D02*
X37544Y100921D01*
X33249Y102700D01*
X29962Y105987D01*
X28183Y110282D01*
X28183Y114930D01*
X29962Y119225D01*
X33249Y122512D01*
X37544Y124291D01*
X57432Y124291D01*
X61727Y122512D01*
X65014Y119225D01*
X66793Y114930D01*
X66793Y110282D01*
X65014Y105987D01*
X61727Y102700D01*
X57432Y100921D01*
X37544Y100921D01*
G37*
%LPD*%
%LPC*%
G36*
X327544Y55709D02*
X327544Y55709D01*
X323249Y57488D01*
X319962Y60775D01*
X318183Y65070D01*
X318183Y69718D01*
X319962Y74013D01*
X323249Y77300D01*
X327544Y79079D01*
X347432Y79079D01*
X351727Y77300D01*
X355014Y74013D01*
X356793Y69718D01*
X356793Y65070D01*
X355014Y60775D01*
X351727Y57488D01*
X347432Y55709D01*
X327544Y55709D01*
G37*
%LPD*%
%LPC*%
G36*
X407161Y551941D02*
X407161Y551941D01*
X407161Y561341D01*
X414820Y561341D01*
X416399Y561091D01*
X417920Y560596D01*
X419345Y559870D01*
X420639Y558930D01*
X421770Y557799D01*
X422710Y556505D01*
X423436Y555080D01*
X423931Y553559D01*
X424181Y551980D01*
X424181Y551941D01*
X407161Y551941D01*
G37*
%LPD*%
%LPC*%
G36*
X280161Y249681D02*
X280161Y249681D01*
X280161Y259081D01*
X287820Y259081D01*
X289399Y258831D01*
X290920Y258336D01*
X292345Y257610D01*
X293639Y256670D01*
X294770Y255539D01*
X295710Y254245D01*
X296436Y252820D01*
X296931Y251299D01*
X297181Y249720D01*
X297181Y249681D01*
X280161Y249681D01*
G37*
%LPD*%
%LPC*%
G36*
X407161Y374821D02*
X407161Y374821D01*
X407161Y384221D01*
X414820Y384221D01*
X416399Y383971D01*
X417920Y383476D01*
X419345Y382750D01*
X420639Y381810D01*
X421770Y380679D01*
X422710Y379385D01*
X423436Y377960D01*
X423931Y376439D01*
X424181Y374860D01*
X424181Y374821D01*
X407161Y374821D01*
G37*
%LPD*%
%LPC*%
G36*
X258861Y30761D02*
X258861Y30761D01*
X258861Y47781D01*
X258900Y47781D01*
X260479Y47531D01*
X262000Y47036D01*
X263425Y46310D01*
X264719Y45370D01*
X265850Y44239D01*
X266790Y42945D01*
X267516Y41520D01*
X268011Y39999D01*
X268261Y38420D01*
X268261Y30761D01*
X258861Y30761D01*
G37*
%LPD*%
%LPC*%
G36*
X239521Y249681D02*
X239521Y249681D01*
X239521Y259081D01*
X247180Y259081D01*
X248759Y258831D01*
X250280Y258336D01*
X251705Y257610D01*
X252999Y256670D01*
X254130Y255539D01*
X255070Y254245D01*
X255796Y252820D01*
X256291Y251299D01*
X256541Y249720D01*
X256541Y249681D01*
X239521Y249681D01*
G37*
%LPD*%
%LPC*%
G36*
X258273Y113367D02*
X258273Y113367D01*
X258273Y122767D01*
X265932Y122767D01*
X267511Y122517D01*
X269032Y122022D01*
X270457Y121296D01*
X271751Y120356D01*
X272882Y119225D01*
X273822Y117931D01*
X274548Y116506D01*
X275043Y114985D01*
X275293Y113406D01*
X275293Y113367D01*
X258273Y113367D01*
G37*
%LPD*%
%LPC*%
G36*
X113273Y113367D02*
X113273Y113367D01*
X113273Y122767D01*
X120932Y122767D01*
X122511Y122517D01*
X124032Y122022D01*
X125457Y121296D01*
X126751Y120356D01*
X127882Y119225D01*
X128822Y117931D01*
X129548Y116506D01*
X130043Y114985D01*
X130293Y113406D01*
X130293Y113367D01*
X113273Y113367D01*
G37*
%LPD*%
%LPC*%
G36*
X388619Y551941D02*
X388619Y551941D01*
X388619Y551980D01*
X388869Y553559D01*
X389364Y555080D01*
X390090Y556505D01*
X391030Y557799D01*
X392161Y558930D01*
X393455Y559870D01*
X394880Y560596D01*
X396401Y561091D01*
X397980Y561341D01*
X405639Y561341D01*
X405639Y551941D01*
X388619Y551941D01*
G37*
%LPD*%
%LPC*%
G36*
X220979Y249681D02*
X220979Y249681D01*
X220979Y249720D01*
X221229Y251299D01*
X221724Y252820D01*
X222450Y254245D01*
X223390Y255539D01*
X224521Y256670D01*
X225815Y257610D01*
X227240Y258336D01*
X228761Y258831D01*
X230340Y259081D01*
X237999Y259081D01*
X237999Y249681D01*
X220979Y249681D01*
G37*
%LPD*%
%LPC*%
G36*
X258861Y12219D02*
X258861Y12219D01*
X258861Y29239D01*
X268261Y29239D01*
X268261Y21580D01*
X268011Y20001D01*
X267516Y18480D01*
X266790Y17055D01*
X265850Y15761D01*
X264719Y14630D01*
X263425Y13690D01*
X262000Y12964D01*
X260479Y12469D01*
X258900Y12219D01*
X258861Y12219D01*
G37*
%LPD*%
%LPC*%
G36*
X388619Y374821D02*
X388619Y374821D01*
X388619Y374860D01*
X388869Y376439D01*
X389364Y377960D01*
X390090Y379385D01*
X391030Y380679D01*
X392161Y381810D01*
X393455Y382750D01*
X394880Y383476D01*
X396401Y383971D01*
X397980Y384221D01*
X405639Y384221D01*
X405639Y374821D01*
X388619Y374821D01*
G37*
%LPD*%
%LPC*%
G36*
X239731Y113367D02*
X239731Y113367D01*
X239731Y113406D01*
X239981Y114985D01*
X240476Y116506D01*
X241202Y117931D01*
X242142Y119225D01*
X243273Y120356D01*
X244567Y121296D01*
X245992Y122022D01*
X247513Y122517D01*
X249092Y122767D01*
X256751Y122767D01*
X256751Y113367D01*
X239731Y113367D01*
G37*
%LPD*%
%LPC*%
G36*
X94731Y113367D02*
X94731Y113367D01*
X94731Y113406D01*
X94981Y114985D01*
X95476Y116506D01*
X96202Y117931D01*
X97142Y119225D01*
X98273Y120356D01*
X99567Y121296D01*
X100992Y122022D01*
X102513Y122517D01*
X104092Y122767D01*
X111751Y122767D01*
X111751Y113367D01*
X94731Y113367D01*
G37*
%LPD*%
%LPC*%
G36*
X261619Y249681D02*
X261619Y249681D01*
X261619Y249720D01*
X261869Y251299D01*
X262364Y252820D01*
X263090Y254245D01*
X264030Y255539D01*
X265161Y256670D01*
X266455Y257610D01*
X267880Y258336D01*
X269401Y258831D01*
X270980Y259081D01*
X278639Y259081D01*
X278639Y249681D01*
X261619Y249681D01*
G37*
%LPD*%
%LPC*%
G36*
X247939Y30761D02*
X247939Y30761D01*
X247939Y38420D01*
X248189Y39999D01*
X248684Y41520D01*
X249410Y42945D01*
X250350Y44239D01*
X251481Y45370D01*
X252775Y46310D01*
X254200Y47036D01*
X255721Y47531D01*
X257300Y47781D01*
X257339Y47781D01*
X257339Y30761D01*
X247939Y30761D01*
G37*
%LPD*%
%LPC*%
G36*
X280161Y238759D02*
X280161Y238759D01*
X280161Y248159D01*
X297181Y248159D01*
X297181Y248120D01*
X296931Y246541D01*
X296436Y245020D01*
X295710Y243595D01*
X294770Y242301D01*
X293639Y241170D01*
X292345Y240230D01*
X290920Y239504D01*
X289399Y239009D01*
X287820Y238759D01*
X280161Y238759D01*
G37*
%LPD*%
%LPC*%
G36*
X407161Y541019D02*
X407161Y541019D01*
X407161Y550419D01*
X424181Y550419D01*
X424181Y550380D01*
X423931Y548801D01*
X423436Y547280D01*
X422710Y545855D01*
X421770Y544561D01*
X420639Y543430D01*
X419345Y542490D01*
X417920Y541764D01*
X416399Y541269D01*
X414820Y541019D01*
X407161Y541019D01*
G37*
%LPD*%
%LPC*%
G36*
X239521Y238759D02*
X239521Y238759D01*
X239521Y248159D01*
X256541Y248159D01*
X256541Y248120D01*
X256291Y246541D01*
X255796Y245020D01*
X255070Y243595D01*
X254130Y242301D01*
X252999Y241170D01*
X251705Y240230D01*
X250280Y239504D01*
X248759Y239009D01*
X247180Y238759D01*
X239521Y238759D01*
G37*
%LPD*%
%LPC*%
G36*
X113273Y102445D02*
X113273Y102445D01*
X113273Y111845D01*
X130293Y111845D01*
X130293Y111806D01*
X130043Y110227D01*
X129548Y108706D01*
X128822Y107281D01*
X127882Y105987D01*
X126751Y104856D01*
X125457Y103916D01*
X124032Y103190D01*
X122511Y102695D01*
X120932Y102445D01*
X113273Y102445D01*
G37*
%LPD*%
%LPC*%
G36*
X407161Y363899D02*
X407161Y363899D01*
X407161Y373299D01*
X424181Y373299D01*
X424181Y373260D01*
X423931Y371681D01*
X423436Y370160D01*
X422710Y368735D01*
X421770Y367441D01*
X420639Y366310D01*
X419345Y365370D01*
X417920Y364644D01*
X416399Y364149D01*
X414820Y363899D01*
X407161Y363899D01*
G37*
%LPD*%
%LPC*%
G36*
X258273Y102445D02*
X258273Y102445D01*
X258273Y111845D01*
X275293Y111845D01*
X275293Y111806D01*
X275043Y110227D01*
X274548Y108706D01*
X273822Y107281D01*
X272882Y105987D01*
X271751Y104856D01*
X270457Y103916D01*
X269032Y103190D01*
X267511Y102695D01*
X265932Y102445D01*
X258273Y102445D01*
G37*
%LPD*%
%LPC*%
G36*
X397980Y541019D02*
X397980Y541019D01*
X396401Y541269D01*
X394880Y541764D01*
X393455Y542490D01*
X392161Y543430D01*
X391030Y544561D01*
X390090Y545855D01*
X389364Y547280D01*
X388869Y548801D01*
X388619Y550380D01*
X388619Y550419D01*
X405639Y550419D01*
X405639Y541019D01*
X397980Y541019D01*
G37*
%LPD*%
%LPC*%
G36*
X270980Y238759D02*
X270980Y238759D01*
X269401Y239009D01*
X267880Y239504D01*
X266455Y240230D01*
X265161Y241170D01*
X264030Y242301D01*
X263090Y243595D01*
X262364Y245020D01*
X261869Y246541D01*
X261619Y248120D01*
X261619Y248159D01*
X278639Y248159D01*
X278639Y238759D01*
X270980Y238759D01*
G37*
%LPD*%
%LPC*%
G36*
X230340Y238759D02*
X230340Y238759D01*
X228761Y239009D01*
X227240Y239504D01*
X225815Y240230D01*
X224521Y241170D01*
X223390Y242301D01*
X222450Y243595D01*
X221724Y245020D01*
X221229Y246541D01*
X220979Y248120D01*
X220979Y248159D01*
X237999Y248159D01*
X237999Y238759D01*
X230340Y238759D01*
G37*
%LPD*%
%LPC*%
G36*
X397980Y363899D02*
X397980Y363899D01*
X396401Y364149D01*
X394880Y364644D01*
X393455Y365370D01*
X392161Y366310D01*
X391030Y367441D01*
X390090Y368735D01*
X389364Y370160D01*
X388869Y371681D01*
X388619Y373260D01*
X388619Y373299D01*
X405639Y373299D01*
X405639Y363899D01*
X397980Y363899D01*
G37*
%LPD*%
%LPC*%
G36*
X249092Y102445D02*
X249092Y102445D01*
X247513Y102695D01*
X245992Y103190D01*
X244567Y103916D01*
X243273Y104856D01*
X242142Y105987D01*
X241202Y107281D01*
X240476Y108706D01*
X239981Y110227D01*
X239731Y111806D01*
X239731Y111845D01*
X256751Y111845D01*
X256751Y102445D01*
X249092Y102445D01*
G37*
%LPD*%
%LPC*%
G36*
X104092Y102445D02*
X104092Y102445D01*
X102513Y102695D01*
X100992Y103190D01*
X99567Y103916D01*
X98273Y104856D01*
X97142Y105987D01*
X96202Y107281D01*
X95476Y108706D01*
X94981Y110227D01*
X94731Y111806D01*
X94731Y111845D01*
X111751Y111845D01*
X111751Y102445D01*
X104092Y102445D01*
G37*
%LPD*%
%LPC*%
G36*
X257300Y12219D02*
X257300Y12219D01*
X255721Y12469D01*
X254200Y12964D01*
X252775Y13690D01*
X251481Y14630D01*
X250350Y15761D01*
X249410Y17055D01*
X248684Y18480D01*
X248189Y20001D01*
X247939Y21580D01*
X247939Y29239D01*
X257339Y29239D01*
X257339Y12219D01*
X257300Y12219D01*
G37*
%LPD*%
%LPC*%
G36*
X135154Y206931D02*
X135154Y206931D01*
X135154Y212600D01*
X135327Y213246D01*
X135662Y213825D01*
X136135Y214298D01*
X136714Y214633D01*
X137360Y214806D01*
X148109Y214806D01*
X148109Y206931D01*
X135154Y206931D01*
G37*
%LPD*%
%LPC*%
G36*
X149631Y197534D02*
X149631Y197534D01*
X149631Y205409D01*
X162586Y205409D01*
X162586Y199740D01*
X162413Y199094D01*
X162078Y198515D01*
X161605Y198042D01*
X161026Y197707D01*
X160380Y197534D01*
X149631Y197534D01*
G37*
%LPD*%
%LPC*%
G36*
X137360Y197534D02*
X137360Y197534D01*
X136714Y197707D01*
X136135Y198042D01*
X135662Y198515D01*
X135327Y199094D01*
X135287Y199246D01*
X135154Y199740D01*
X135154Y205409D01*
X148109Y205409D01*
X148109Y197534D01*
X137360Y197534D01*
G37*
%LPD*%
%LPC*%
G36*
X301561Y349161D02*
X301561Y349161D01*
X301561Y356941D01*
X311135Y356941D01*
X311781Y356768D01*
X312360Y356433D01*
X312833Y355960D01*
X313168Y355381D01*
X313341Y354735D01*
X313341Y349161D01*
X301561Y349161D01*
G37*
%LPD*%
%LPC*%
G36*
X288259Y349161D02*
X288259Y349161D01*
X288259Y354735D01*
X288432Y355381D01*
X288767Y355960D01*
X289240Y356433D01*
X289819Y356768D01*
X290465Y356941D01*
X300039Y356941D01*
X300039Y349161D01*
X288259Y349161D01*
G37*
%LPD*%
%LPC*%
G36*
X301561Y339859D02*
X301561Y339859D01*
X301561Y347639D01*
X313341Y347639D01*
X313341Y342065D01*
X313168Y341419D01*
X312833Y340840D01*
X312360Y340367D01*
X311781Y340032D01*
X311135Y339859D01*
X301561Y339859D01*
G37*
%LPD*%
%LPC*%
G36*
X290465Y339859D02*
X290465Y339859D01*
X289819Y340032D01*
X289240Y340367D01*
X288767Y340840D01*
X288432Y341419D01*
X288259Y342065D01*
X288259Y347639D01*
X300039Y347639D01*
X300039Y339859D01*
X290465Y339859D01*
G37*
%LPD*%
%LPC*%
G36*
X56641Y325221D02*
X56641Y325221D01*
X56641Y333501D01*
X63715Y333501D01*
X64361Y333328D01*
X64940Y332993D01*
X65413Y332520D01*
X65748Y331941D01*
X65798Y331752D01*
X65798Y331751D01*
X65921Y331295D01*
X65921Y325221D01*
X56641Y325221D01*
G37*
%LPD*%
%LPC*%
G36*
X87121Y325221D02*
X87121Y325221D01*
X87121Y333501D01*
X94195Y333501D01*
X94841Y333328D01*
X95420Y332993D01*
X95893Y332520D01*
X96228Y331941D01*
X96278Y331752D01*
X96278Y331751D01*
X96401Y331295D01*
X96401Y325221D01*
X87121Y325221D01*
G37*
%LPD*%
%LPC*%
G36*
X207281Y274661D02*
X207281Y274661D01*
X207281Y283941D01*
X213355Y283941D01*
X214001Y283768D01*
X214580Y283433D01*
X215053Y282960D01*
X215388Y282381D01*
X215561Y281735D01*
X215561Y274661D01*
X207281Y274661D01*
G37*
%LPD*%
%LPC*%
G36*
X26161Y523341D02*
X26161Y523341D01*
X26161Y531621D01*
X33235Y531621D01*
X33881Y531448D01*
X34460Y531113D01*
X34933Y530640D01*
X35268Y530061D01*
X35441Y529415D01*
X35441Y523341D01*
X26161Y523341D01*
G37*
%LPD*%
%LPC*%
G36*
X178139Y235341D02*
X178139Y235341D01*
X178139Y242415D01*
X178312Y243061D01*
X178647Y243640D01*
X179120Y244113D01*
X179699Y244448D01*
X180345Y244621D01*
X186419Y244621D01*
X186419Y235341D01*
X178139Y235341D01*
G37*
%LPD*%
%LPC*%
G36*
X15359Y523341D02*
X15359Y523341D01*
X15359Y529415D01*
X15532Y530061D01*
X15867Y530640D01*
X16340Y531113D01*
X16919Y531448D01*
X17565Y531621D01*
X24639Y531621D01*
X24639Y523341D01*
X15359Y523341D01*
G37*
%LPD*%
%LPC*%
G36*
X207281Y263859D02*
X207281Y263859D01*
X207281Y273139D01*
X215561Y273139D01*
X215561Y266065D01*
X215388Y265419D01*
X215053Y264840D01*
X214580Y264367D01*
X214001Y264032D01*
X213355Y263859D01*
X207281Y263859D01*
G37*
%LPD*%
%LPC*%
G36*
X76319Y325221D02*
X76319Y325221D01*
X76319Y331295D01*
X76492Y331941D01*
X76827Y332520D01*
X77300Y332993D01*
X77879Y333328D01*
X78525Y333501D01*
X85599Y333501D01*
X85599Y325221D01*
X76319Y325221D01*
G37*
%LPD*%
%LPC*%
G36*
X45839Y325221D02*
X45839Y325221D01*
X45839Y331295D01*
X46012Y331941D01*
X46347Y332520D01*
X46820Y332993D01*
X47399Y333328D01*
X48045Y333501D01*
X55119Y333501D01*
X55119Y325221D01*
X45839Y325221D01*
G37*
%LPD*%
%LPC*%
G36*
X325881Y248159D02*
X325881Y248159D01*
X325881Y256439D01*
X335161Y256439D01*
X335161Y250365D01*
X334988Y249719D01*
X334653Y249140D01*
X334180Y248667D01*
X333601Y248332D01*
X332955Y248159D01*
X325881Y248159D01*
G37*
%LPD*%
%LPC*%
G36*
X317285Y248159D02*
X317285Y248159D01*
X316639Y248332D01*
X316060Y248667D01*
X315587Y249140D01*
X315252Y249719D01*
X315079Y250365D01*
X315079Y256439D01*
X324359Y256439D01*
X324359Y248159D01*
X317285Y248159D01*
G37*
%LPD*%
%LPC*%
G36*
X180345Y224539D02*
X180345Y224539D01*
X179699Y224712D01*
X179120Y225047D01*
X178647Y225520D01*
X178312Y226099D01*
X178139Y226745D01*
X178139Y233819D01*
X186419Y233819D01*
X186419Y224539D01*
X180345Y224539D01*
G37*
%LPD*%
%LPC*%
G36*
X59181Y396661D02*
X59181Y396661D01*
X59181Y404441D01*
X64755Y404441D01*
X65401Y404268D01*
X65980Y403933D01*
X66453Y403460D01*
X66788Y402881D01*
X66961Y402235D01*
X66961Y396661D01*
X59181Y396661D01*
G37*
%LPD*%
%LPC*%
G36*
X49879Y396661D02*
X49879Y396661D01*
X49879Y402235D01*
X50052Y402881D01*
X50387Y403460D01*
X50860Y403933D01*
X51439Y404268D01*
X52085Y404441D01*
X57659Y404441D01*
X57659Y396661D01*
X49879Y396661D01*
G37*
%LPD*%
%LPC*%
G36*
X59181Y387359D02*
X59181Y387359D01*
X59181Y395139D01*
X66961Y395139D01*
X66961Y389565D01*
X66788Y388919D01*
X66453Y388340D01*
X65980Y387867D01*
X65401Y387532D01*
X64755Y387359D01*
X59181Y387359D01*
G37*
%LPD*%
%LPC*%
G36*
X52085Y387359D02*
X52085Y387359D01*
X51439Y387532D01*
X50860Y387867D01*
X50387Y388340D01*
X50052Y388919D01*
X49879Y389565D01*
X49879Y395139D01*
X57659Y395139D01*
X57659Y387359D01*
X52085Y387359D01*
G37*
%LPD*%
%LPC*%
G36*
X238759Y248919D02*
X238759Y248919D01*
X238759Y248921D01*
X238761Y248921D01*
X238761Y248919D01*
X238759Y248919D01*
G37*
%LPD*%
%LPC*%
G36*
X279399Y248919D02*
X279399Y248919D01*
X279399Y248921D01*
X279401Y248921D01*
X279401Y248919D01*
X279399Y248919D01*
G37*
%LPD*%
%LPC*%
G36*
X112511Y112605D02*
X112511Y112605D01*
X112511Y112607D01*
X112513Y112607D01*
X112513Y112605D01*
X112511Y112605D01*
G37*
%LPD*%
%LPC*%
G36*
X257511Y112605D02*
X257511Y112605D01*
X257511Y112607D01*
X257513Y112607D01*
X257513Y112605D01*
X257511Y112605D01*
G37*
%LPD*%
%LPC*%
G36*
X406399Y374059D02*
X406399Y374059D01*
X406399Y374061D01*
X406401Y374061D01*
X406401Y374059D01*
X406399Y374059D01*
G37*
%LPD*%
%LPC*%
G36*
X258099Y29999D02*
X258099Y29999D01*
X258099Y30001D01*
X258101Y30001D01*
X258101Y29999D01*
X258099Y29999D01*
G37*
%LPD*%
%LPC*%
G36*
X406399Y551179D02*
X406399Y551179D01*
X406399Y551181D01*
X406401Y551181D01*
X406401Y551179D01*
X406399Y551179D01*
G37*
%LPD*%
%LPC*%
G36*
X148869Y206169D02*
X148869Y206169D01*
X148869Y206171D01*
X148871Y206171D01*
X148871Y206169D01*
X148869Y206169D01*
G37*
%LPD*%
%LPC*%
G36*
X300799Y348399D02*
X300799Y348399D01*
X300799Y348401D01*
X300801Y348401D01*
X300801Y348399D01*
X300799Y348399D01*
G37*
%LPD*%
%LPC*%
G36*
X58419Y395899D02*
X58419Y395899D01*
X58419Y395901D01*
X58421Y395901D01*
X58421Y395899D01*
X58419Y395899D01*
G37*
%LPD*%
D10*
X329868Y112606D02*
X345108Y112606D01*
X345108Y67394D02*
X329868Y67394D01*
X394892Y112606D02*
X410132Y112606D01*
X410132Y67394D02*
X394892Y67394D01*
D11*
X25400Y503580D03*
X25400Y522580D03*
D12*
X187520Y273900D03*
X206520Y273900D03*
D11*
X55880Y305460D03*
X55880Y324460D03*
D10*
X184868Y112606D02*
X200108Y112606D01*
X200108Y67394D02*
X184868Y67394D01*
X249892Y112606D02*
X265132Y112606D01*
X265132Y67394D02*
X249892Y67394D01*
D13*
X148870Y206170D03*
X148870Y229280D03*
X148870Y252390D03*
D14*
X86890Y229280D03*
D15*
X58420Y395900D03*
X58420Y416900D03*
D11*
X152400Y81940D03*
X152400Y100940D03*
X350520Y386740D03*
X350520Y405740D03*
X91440Y399440D03*
X91440Y418440D03*
D12*
X83160Y457200D03*
X64160Y457200D03*
D11*
X55880Y504800D03*
X55880Y485800D03*
D12*
X346100Y467360D03*
X365100Y467360D03*
D10*
X120132Y67394D02*
X104892Y67394D01*
X104892Y112606D02*
X120132Y112606D01*
X55108Y67394D02*
X39868Y67394D01*
X39868Y112606D02*
X55108Y112606D01*
D16*
X138800Y348400D03*
X138800Y368400D03*
X138800Y388400D03*
X138800Y408400D03*
X138800Y428400D03*
X138800Y448400D03*
X138800Y468400D03*
X138800Y488400D03*
X300800Y348400D03*
X300800Y368400D03*
X300800Y388400D03*
X300800Y408400D03*
X300800Y428400D03*
X300800Y448400D03*
X300800Y468400D03*
X300800Y488400D03*
D17*
X248800Y328400D03*
X168800Y328400D03*
X188800Y328400D03*
X268800Y328400D03*
X208800Y328400D03*
X228800Y328400D03*
D10*
X398780Y424180D02*
X414020Y424180D01*
X414020Y449580D02*
X398780Y449580D01*
X398780Y474980D02*
X414020Y474980D01*
X414020Y500380D02*
X398780Y500380D01*
X398780Y525780D02*
X414020Y525780D01*
X414020Y551180D02*
X398780Y551180D01*
D12*
X206180Y234580D03*
X187180Y234580D03*
D11*
X86360Y305460D03*
X86360Y324460D03*
D10*
X308900Y37620D02*
X308900Y22380D01*
X283500Y22380D02*
X283500Y37620D01*
X258100Y37620D02*
X258100Y22380D01*
X232700Y22380D02*
X232700Y37620D01*
X207300Y37620D02*
X207300Y22380D01*
X181900Y22380D02*
X181900Y37620D01*
X156500Y37620D02*
X156500Y22380D01*
X131100Y22380D02*
X131100Y37620D01*
D11*
X355600Y276200D03*
X355600Y257200D03*
X325120Y257200D03*
X325120Y276200D03*
D10*
X398780Y272460D02*
X414020Y272460D01*
X414020Y297860D02*
X398780Y297860D01*
X398780Y323260D02*
X414020Y323260D01*
X414020Y348660D02*
X398780Y348660D01*
X398780Y374060D02*
X414020Y374060D01*
X287020Y223520D02*
X271780Y223520D01*
X271780Y248920D02*
X287020Y248920D01*
X246380Y223520D02*
X231140Y223520D01*
X231140Y248920D02*
X246380Y248920D01*
D18*
X86360Y305460D02*
X55880Y305460D01*
X86890Y304930D02*
X86890Y229280D01*
X86890Y304930D02*
X86360Y305460D01*
X148870Y229280D02*
X156800Y229280D01*
X185420Y200660D01*
X185420Y182880D02*
X193040Y175260D01*
X330200Y175260D02*
X337820Y167640D01*
X337820Y112938D01*
X337488Y112606D01*
X185420Y182880D02*
X185420Y200660D01*
X193040Y175260D02*
X330200Y175260D01*
X138800Y348400D02*
X138380Y347980D01*
X87020Y304800D02*
X86890Y304930D01*
X308900Y30000D02*
X360200Y30000D01*
X373380Y43180D01*
X373380Y99060D01*
X359502Y112938D02*
X337820Y112938D01*
X359502Y112938D02*
X373380Y99060D01*
X50800Y347980D02*
X40640Y358140D01*
X116840Y347980D02*
X138380Y347980D01*
X116840Y347980D02*
X50800Y347980D01*
X40640Y449580D02*
X48260Y457200D01*
X55880Y457200D01*
X64160Y457200D01*
X40640Y449580D02*
X40640Y358140D01*
X55880Y457200D02*
X55880Y485800D01*
X387940Y348660D02*
X406400Y348660D01*
X387940Y348660D02*
X373380Y363220D01*
X373380Y398780D02*
X368300Y403860D01*
X365760Y406400D01*
X351180Y406400D01*
X350520Y405740D01*
X373380Y398780D02*
X373380Y363220D01*
X406400Y500380D02*
X424180Y500380D01*
X436880Y487680D01*
X436880Y411480D01*
X424180Y398780D02*
X373380Y398780D01*
X424180Y398780D02*
X436880Y411480D01*
X116840Y304800D02*
X87020Y304800D01*
X116840Y304800D02*
X116840Y347980D01*
X266700Y304800D02*
X274320Y297180D01*
X276860Y297180D01*
D19*
X276860Y297180D03*
D18*
X266700Y304800D02*
X116840Y304800D01*
D19*
X368300Y441960D03*
D18*
X368300Y403860D01*
X152400Y154940D02*
X152400Y100940D01*
X96520Y167640D02*
X25400Y238760D01*
X25400Y503580D01*
X139700Y167640D02*
X152400Y154940D01*
X139700Y167640D02*
X96520Y167640D01*
X136200Y485800D02*
X138800Y488400D01*
X55880Y504800D02*
X26620Y504800D01*
X25400Y503580D01*
X95800Y488400D02*
X138800Y488400D01*
X95800Y488400D02*
X78740Y505460D01*
X56540Y505460D01*
X55880Y504800D01*
D20*
X86360Y373380D03*
X53340Y271780D03*
X116840Y279400D03*
X259080Y195580D03*
X114300Y142240D03*
X264160Y147320D03*
X411480Y210820D03*
D18*
X137854Y67394D02*
X112512Y67394D01*
X137854Y67394D02*
X152400Y81940D01*
X138800Y448400D02*
X110400Y448400D01*
X101600Y457200D01*
X83160Y457200D01*
X381000Y474980D02*
X406400Y474980D01*
X381000Y474980D02*
X373380Y467360D01*
X365100Y467360D01*
D19*
X345440Y497840D03*
D18*
X310240Y497840D01*
X300800Y488400D01*
D19*
X332740Y429260D03*
D18*
X301660Y429260D01*
X300800Y428400D01*
X91440Y399440D02*
X88900Y401980D01*
X91440Y399440D02*
X83160Y399440D01*
X65700Y416900D02*
X58420Y416900D01*
X65700Y416900D02*
X83160Y399440D01*
X101400Y428400D02*
X138800Y428400D01*
X101400Y428400D02*
X91440Y418440D01*
X238760Y223520D02*
X279400Y223520D01*
X208720Y237120D02*
X208720Y245940D01*
X208720Y237120D02*
X206180Y234580D01*
X208720Y245940D02*
X200660Y254000D01*
X150480Y254000D02*
X148870Y252390D01*
X187960Y254000D02*
X200660Y254000D01*
X187960Y254000D02*
X150480Y254000D01*
X187520Y273900D02*
X187960Y273460D01*
X187960Y254000D01*
X217240Y223520D02*
X238760Y223520D01*
X217240Y223520D02*
X206180Y234580D01*
X301840Y467360D02*
X346100Y467360D01*
X301840Y467360D02*
X300800Y468400D01*
D19*
X271780Y408940D03*
D18*
X272320Y408400D01*
X300800Y408400D01*
X300800Y388400D02*
X302460Y386740D01*
X350520Y386740D01*
X387940Y297860D02*
X406400Y297860D01*
X387940Y297860D02*
X350520Y335280D01*
X350520Y386740D01*
X355600Y276200D02*
X325120Y276200D01*
X207240Y468400D02*
X138800Y468400D01*
X218440Y457200D02*
X218440Y386080D01*
D19*
X218440Y386080D03*
D18*
X218440Y457200D02*
X207240Y468400D01*
D19*
X261620Y276860D03*
D18*
X324460Y276860D01*
X325120Y276200D01*
X406400Y323260D02*
X428580Y323260D01*
X434340Y317500D01*
X434340Y246380D01*
X429260Y241300D01*
X370180Y257200D02*
X355600Y257200D01*
X386080Y241300D02*
X429260Y241300D01*
X386080Y241300D02*
X370180Y257200D01*
D19*
X180340Y406400D03*
D18*
X140800Y406400D01*
X138800Y408400D01*
D19*
X198120Y386080D03*
D18*
X141120Y386080D01*
X138800Y388400D01*
D19*
X175260Y368300D03*
D18*
X138900Y368300D01*
X138800Y368400D01*
D19*
X238760Y368300D03*
D18*
X300700Y368300D01*
X300800Y368400D01*
D19*
X332740Y447040D03*
D18*
X302160Y447040D01*
X300800Y448400D01*
M02*
