G04 EAGLE Gerber RS-274X export*
G75*
%MOMM*%
%FSLAX34Y34*%
%LPD*%
%INSoldermask Top*%
%IPPOS*%
%AMOC8*
5,1,8,0,0,1.08239X$1,22.5*%
G01*
%ADD10C,3.203200*%
%ADD11C,1.727200*%
%ADD12R,1.703200X1.503200*%
%ADD13R,1.503200X1.703200*%
%ADD14R,2.438200X1.422200*%
%ADD15R,2.403200X3.803200*%
%ADD16R,1.403200X1.403200*%
%ADD17R,2.203200X1.403200*%
%ADD18R,1.403200X2.203200*%
%ADD19C,1.219200*%
%ADD20C,1.409600*%


D10*
X47500Y165000D03*
X392500Y165000D03*
X342500Y540000D03*
X97500Y540000D03*
D11*
X329868Y112606D02*
X345108Y112606D01*
X345108Y67394D02*
X329868Y67394D01*
X394892Y112606D02*
X410132Y112606D01*
X410132Y67394D02*
X394892Y67394D01*
D12*
X25400Y503580D03*
X25400Y522580D03*
D13*
X187520Y273900D03*
X206520Y273900D03*
D12*
X55880Y305460D03*
X55880Y324460D03*
D11*
X184868Y112606D02*
X200108Y112606D01*
X200108Y67394D02*
X184868Y67394D01*
X249892Y112606D02*
X265132Y112606D01*
X265132Y67394D02*
X249892Y67394D01*
D14*
X148870Y206170D03*
X148870Y229280D03*
X148870Y252390D03*
D15*
X86890Y229280D03*
D16*
X58420Y395900D03*
X58420Y416900D03*
D12*
X152400Y81940D03*
X152400Y100940D03*
X350520Y386740D03*
X350520Y405740D03*
X91440Y399440D03*
X91440Y418440D03*
D13*
X83160Y457200D03*
X64160Y457200D03*
D12*
X55880Y504800D03*
X55880Y485800D03*
D13*
X346100Y467360D03*
X365100Y467360D03*
D11*
X120132Y67394D02*
X104892Y67394D01*
X104892Y112606D02*
X120132Y112606D01*
X55108Y67394D02*
X39868Y67394D01*
X39868Y112606D02*
X55108Y112606D01*
D17*
X138800Y348400D03*
X138800Y368400D03*
X138800Y388400D03*
X138800Y408400D03*
X138800Y428400D03*
X138800Y448400D03*
X138800Y468400D03*
X138800Y488400D03*
X300800Y348400D03*
X300800Y368400D03*
X300800Y388400D03*
X300800Y408400D03*
X300800Y428400D03*
X300800Y448400D03*
X300800Y468400D03*
X300800Y488400D03*
D18*
X248800Y328400D03*
X168800Y328400D03*
X188800Y328400D03*
X268800Y328400D03*
X208800Y328400D03*
X228800Y328400D03*
D11*
X398780Y424180D02*
X414020Y424180D01*
X414020Y449580D02*
X398780Y449580D01*
X398780Y474980D02*
X414020Y474980D01*
X414020Y500380D02*
X398780Y500380D01*
X398780Y525780D02*
X414020Y525780D01*
X414020Y551180D02*
X398780Y551180D01*
D13*
X206180Y234580D03*
X187180Y234580D03*
D12*
X86360Y305460D03*
X86360Y324460D03*
D11*
X308900Y37620D02*
X308900Y22380D01*
X283500Y22380D02*
X283500Y37620D01*
X258100Y37620D02*
X258100Y22380D01*
X232700Y22380D02*
X232700Y37620D01*
X207300Y37620D02*
X207300Y22380D01*
X181900Y22380D02*
X181900Y37620D01*
X156500Y37620D02*
X156500Y22380D01*
X131100Y22380D02*
X131100Y37620D01*
D12*
X355600Y276200D03*
X355600Y257200D03*
X325120Y257200D03*
X325120Y276200D03*
D11*
X398780Y272460D02*
X414020Y272460D01*
X414020Y297860D02*
X398780Y297860D01*
X398780Y323260D02*
X414020Y323260D01*
X414020Y348660D02*
X398780Y348660D01*
X398780Y374060D02*
X414020Y374060D01*
X287020Y223520D02*
X271780Y223520D01*
X271780Y248920D02*
X287020Y248920D01*
X246380Y223520D02*
X231140Y223520D01*
X231140Y248920D02*
X246380Y248920D01*
D19*
X276860Y297180D03*
X368300Y441960D03*
D20*
X86360Y373380D03*
X53340Y271780D03*
X116840Y279400D03*
X259080Y195580D03*
X114300Y142240D03*
X264160Y147320D03*
X411480Y210820D03*
D19*
X345440Y497840D03*
X332740Y429260D03*
X271780Y408940D03*
X218440Y386080D03*
X261620Y276860D03*
X180340Y406400D03*
X198120Y386080D03*
X175260Y368300D03*
X238760Y368300D03*
X332740Y447040D03*
M02*
