M48
;GenerationSoftware,Autodesk,EAGLE,9.6.2*%
;CreationDate,2020-12-08T15:43:00Z*%
FMAT,2
ICI,OFF
METRIC,TZ,000.000
T4C0.610
T3C0.800
T2C1.016
T1C3.000
%
G90
M71
T1
X39250Y16500
X34250Y54000
X9750Y54000
X4750Y16500
T2
X40640Y52578
X40640Y55118
X30890Y3000
X28350Y3000
X25810Y3000
X23270Y3000
X20730Y3000
X25751Y11261
X18190Y3000
X15650Y3000
X13110Y3000
X40640Y27246
X40640Y32326
X40640Y34866
X40640Y37406
X27940Y22352
X27940Y24892
X23876Y22352
X23876Y24892
X33749Y11261
X33749Y6739
X40251Y11261
X40251Y6739
X19249Y11261
X19249Y6739
X40640Y29786
X25751Y6739
X11251Y6739
X11251Y11261
X4749Y6739
X4749Y11261
X40640Y42418
X40640Y44958
X40640Y47498
X40640Y50038
T3
X26416Y14732
X8636Y37338
X5334Y27178
X11684Y27940
X25908Y19558
X11430Y14224
X41148Y21082
T4
X36830Y44196
X34544Y49784
X33274Y42926
X27178Y40894
X21844Y38608
X26162Y27686
X18034Y40640
X19812Y38608
X17526Y36830
X23876Y36830
X33274Y44704
X27686Y29718
M30